# WaveFront *.obj file (generated by Autodesk ATF)

mtllib SailBoat.mtl

g hull

v 0.500000 0.160000 0.060000
v 0.500000 -0.160000 0.060000
v 0.499711 -0.159711 0.054119
v 0.498847 -0.158847 0.048295
v 0.495433 -0.155433 0.037039
v 0.489888 -0.149888 0.026666
v 0.482426 -0.142426 0.017574
v 0.473334 -0.133334 0.010112
v 0.462961 -0.122961 0.004567
v 0.451705 -0.111705 0.001153
v 0.440000 -0.100000 0.000000
v 0.440000 0.100000 0.000000
v 0.451705 0.111705 0.001153
v 0.462961 0.122961 0.004567
v 0.473334 0.133334 0.010112
v 0.482426 0.142426 0.017574
v 0.489888 0.149888 0.026666
v 0.495433 0.155433 0.037039
v 0.498847 0.158847 0.048295
v 0.499711 0.159711 0.054119
v -0.500000 -0.160000 0.060000
v -0.500000 -0.157956 0.044471
v -0.500000 -0.151962 0.030000
v -0.500000 -0.142426 0.017574
v -0.500000 -0.130000 0.008038
v -0.500000 -0.115529 0.002044
v -0.500000 -0.100000 0.000000
v -0.166667 -0.157956 0.044471
v 0.166667 -0.157956 0.044471
v -0.166667 -0.151962 0.030000
v 0.166667 -0.151962 0.030000
v -0.166667 -0.142426 0.017574
v 0.166667 -0.142426 0.017574
v -0.166667 -0.130000 0.008038
v 0.166667 -0.130000 0.008038
v -0.166667 -0.115529 0.002044
v 0.166667 -0.115529 0.002044
v -0.500000 0.100000 0.000000
v -0.500000 0.115529 0.002044
v -0.500000 0.130000 0.008038
v -0.500000 0.142426 0.017574
v -0.500000 0.151962 0.030000
v -0.500000 0.157956 0.044471
v -0.500000 0.160000 0.060000
v -0.166667 0.115529 0.002044
v 0.166667 0.115529 0.002044
v -0.166667 0.130000 0.008038
v 0.166667 0.130000 0.008038
v -0.166667 0.142426 0.017574
v 0.166667 0.142426 0.017574
v -0.166667 0.151962 0.030000
v 0.166667 0.151962 0.030000
v -0.166667 0.157956 0.044471
v 0.166667 0.157956 0.044471
v 0.500000 -0.160000 0.180000
v -0.500000 -0.160000 0.150000
v 0.500000 0.160000 0.180000
v -0.500000 0.160000 0.150000
vt -0.160000 -0.047124 0.000000
vt 0.160000 -0.047124 0.000000
vt -0.159711 -0.041233 0.000000
vt 0.159711 -0.041233 0.000000
vt -0.158847 -0.035343 0.000000
vt 0.158847 -0.035343 0.000000
vt 0.155433 -0.023562 0.000000
vt -0.155433 -0.023562 0.000000
vt 0.149888 -0.011781 0.000000
vt -0.149888 -0.011781 0.000000
vt -0.142426 0.000000 0.000000
vt 0.142426 0.000000 0.000000
vt -0.133334 0.011781 0.000000
vt 0.133334 0.011781 0.000000
vt 0.122961 0.023562 0.000000
vt -0.122961 0.023562 0.000000
vt 0.111705 0.035343 0.000000
vt -0.111705 0.035343 0.000000
vt -0.100000 0.047124 0.000000
vt 0.100000 0.047124 0.000000
vt -0.250000 -0.047124 0.000000
vt 0.750000 -0.047124 0.000000
vt -0.249711 -0.041233 0.000000
vt 0.083333 -0.031416 0.000000
vt -0.248847 -0.035343 0.000000
vt -0.245433 -0.023562 0.000000
vt 0.083333 -0.015708 0.000000
vt -0.239888 -0.011781 0.000000
vt 0.083333 -0.000000 0.000000
vt -0.232426 0.000000 0.000000
vt -0.223334 0.011781 0.000000
vt 0.083333 0.015708 0.000000
vt -0.212961 0.023562 0.000000
vt 0.083333 0.031416 0.000000
vt -0.201705 0.035343 0.000000
vt -0.190000 0.047124 0.000000
vt 0.416667 0.031416 0.000000
vt 0.750000 0.047124 0.000000
vt 0.750000 0.031416 0.000000
vt 0.750000 0.015708 0.000000
vt 0.416667 0.015708 0.000000
vt 0.750000 -0.000000 0.000000
vt 0.416667 -0.000000 0.000000
vt 0.750000 -0.015708 0.000000
vt 0.416667 -0.015708 0.000000
vt 0.750000 -0.031416 0.000000
vt 0.416667 -0.031416 0.000000
vt 0.190000 0.047124 0.000000
vt -0.750000 0.047124 0.000000
vt 0.201705 0.035343 0.000000
vt -0.083333 0.031416 0.000000
vt 0.212961 0.023562 0.000000
vt -0.083333 0.015708 0.000000
vt 0.223334 0.011781 0.000000
vt -0.083333 -0.000000 0.000000
vt 0.232426 0.000000 0.000000
vt 0.239888 -0.011781 0.000000
vt -0.083333 -0.015708 0.000000
vt 0.245433 -0.023562 0.000000
vt -0.083333 -0.031416 0.000000
vt 0.248847 -0.035343 0.000000
vt 0.249711 -0.041233 0.000000
vt 0.250000 -0.047124 0.000000
vt -0.750000 -0.047124 0.000000
vt -0.416667 -0.031416 0.000000
vt -0.750000 -0.031416 0.000000
vt -0.416667 -0.015708 0.000000
vt -0.750000 -0.015708 0.000000
vt -0.416667 -0.000000 0.000000
vt -0.750000 -0.000000 0.000000
vt -0.416667 0.015708 0.000000
vt -0.750000 0.015708 0.000000
vt -0.416667 0.031416 0.000000
vt -0.750000 0.031416 0.000000
vt 0.030000 -0.500000 0.000000
vt 0.030000 0.500000 0.000000
vt -0.060000 -0.500000 0.000000
vt -0.090000 0.500000 0.000000
vt 0.120000 0.160000 0.000000
vt -0.000000 0.160000 0.000000
vt 0.120000 -0.160000 0.000000
vt 0.000000 -0.160000 0.000000
vt -0.030000 -0.500000 0.000000
vt 0.060000 -0.500000 0.000000
vt -0.030000 0.500000 0.000000
vt 0.090000 0.500000 0.000000
vt 1.000450 0.160000 0.000000
vt 0.000000 0.160000 0.000000
vt 1.000450 -0.160000 0.000000
vt 0.000000 -0.160000 0.000000
vt 0.002044 -0.115529 0.000000
vt 0.008038 -0.130000 0.000000
vt -0.000000 -0.100000 0.000000
vt 0.017574 -0.142426 0.000000
vt 0.030000 -0.151962 0.000000
vt 0.044471 -0.157956 0.000000
vt 0.060000 -0.160000 0.000000
vt 0.060000 0.160000 0.000000
vt 0.150000 -0.160000 0.000000
vt 0.150000 0.160000 0.000000
vt 0.044471 0.157956 0.000000
vt -0.000000 0.100000 0.000000
vt 0.030000 0.151962 0.000000
vt 0.017574 0.142426 0.000000
vt 0.008038 0.130000 0.000000
vt 0.002044 0.115529 0.000000
vt 0.060000 -0.100000 0.000000
vt 1.000000 -0.100000 0.000000
vt 0.060000 0.100000 0.000000
vt 1.000000 0.100000 0.000000
vn 1.000000 -0.000000 0.000000
vn 1.000000 -0.000000 0.000000
vn 0.995185 -0.000000 -0.098017
vn 0.995185 -0.000000 -0.098017
vn 0.980785 -0.000000 -0.195090
vn 0.980785 -0.000000 -0.195090
vn 0.923880 -0.000000 -0.382683
vn 0.923880 -0.000000 -0.382683
vn 0.831470 -0.000000 -0.555570
vn 0.831470 -0.000000 -0.555570
vn 0.707107 -0.000000 -0.707107
vn 0.707107 -0.000000 -0.707107
vn 0.555570 -0.000000 -0.831470
vn 0.555570 -0.000000 -0.831470
vn 0.382683 -0.000000 -0.923880
vn 0.382683 -0.000000 -0.923880
vn 0.195090 -0.000000 -0.980785
vn 0.195090 -0.000000 -0.980785
vn -0.000000 -0.000000 -1.000000
vn -0.000000 -0.000000 -1.000000
vn 0.000000 -1.000000 -0.000000
vn 0.000000 -1.000000 -0.000000
vn 0.000000 -0.995185 -0.098017
vn 0.000000 -0.965926 -0.258819
vn 0.000000 -0.980785 -0.195090
vn 0.000000 -0.923880 -0.382683
vn 0.000000 -0.866025 -0.500000
vn 0.000000 -0.831470 -0.555570
vn 0.000000 -0.707107 -0.707107
vn 0.000000 -0.707107 -0.707107
vn 0.000000 -0.555570 -0.831470
vn 0.000000 -0.500000 -0.866025
vn 0.000000 -0.382683 -0.923880
vn 0.000000 -0.258819 -0.965926
vn 0.000000 -0.195090 -0.980785
vn 0.000000 -0.258819 -0.965926
vn -0.000000 -0.000000 -1.000000
vn 0.000000 -0.258819 -0.965926
vn 0.000000 -0.500000 -0.866025
vn 0.000000 -0.500000 -0.866025
vn 0.000000 -0.707107 -0.707107
vn 0.000000 -0.707107 -0.707107
vn 0.000000 -0.866025 -0.500000
vn 0.000000 -0.866025 -0.500000
vn 0.000000 -0.965926 -0.258819
vn 0.000000 -0.965926 -0.258819
vn -0.000000 -0.000000 -1.000000
vn -0.000000 0.195090 -0.980785
vn -0.000000 0.258819 -0.965926
vn -0.000000 0.382683 -0.923880
vn -0.000000 0.500000 -0.866025
vn -0.000000 0.555570 -0.831470
vn -0.000000 0.707107 -0.707107
vn -0.000000 0.707107 -0.707107
vn -0.000000 0.831470 -0.555570
vn -0.000000 0.866025 -0.500000
vn -0.000000 0.923880 -0.382683
vn -0.000000 0.965926 -0.258819
vn -0.000000 0.980785 -0.195090
vn -0.000000 0.995185 -0.098017
vn 0.000000 1.000000 0.000000
vn 0.000000 1.000000 0.000000
vn -0.000000 0.965926 -0.258819
vn -0.000000 0.965926 -0.258819
vn -0.000000 0.866025 -0.500000
vn -0.000000 0.866025 -0.500000
vn -0.000000 0.707107 -0.707107
vn -0.000000 0.707107 -0.707107
vn -0.000000 0.500000 -0.866025
vn -0.000000 0.500000 -0.866025
vn -0.000000 0.258819 -0.965926
vn -0.000000 0.258819 -0.965926
vn 0.000000 -1.000000 0.000000
vn 0.000000 -1.000000 0.000000
vn 1.000000 0.000000 0.000000
vn 1.000000 0.000000 0.000000
vn 0.000000 1.000000 0.000000
vn 0.000000 1.000000 0.000000
vn -0.029987 0.000000 0.999550
vn -0.029987 0.000000 0.999550
vn -0.029987 0.000000 0.999550
vn -0.029987 0.000000 0.999550
vn -1.000000 0.000000 0.000000
vn -1.000000 0.000000 0.000000
vn -1.000000 0.000000 0.000000
vn -1.000000 0.000000 0.000000
vn -1.000000 0.000000 0.000000
vn -1.000000 0.000000 0.000000
vn -1.000000 0.000000 0.000000
vn -1.000000 0.000000 0.000000
vn -1.000000 0.000000 0.000000
vn -1.000000 0.000000 0.000000
vn -1.000000 0.000000 0.000000
vn -1.000000 0.000000 0.000000
vn -1.000000 0.000000 0.000000
vn -1.000000 0.000000 0.000000
vn -1.000000 0.000000 0.000000
vn -1.000000 0.000000 0.000000
usemtl Paint_-_Enamel_Glossy_(White)
f 1/1/1 2/2/2 20/3/3
f 20/3/3 2/2/2 3/4/4
f 20/3/3 3/4/4 19/5/5
f 19/5/5 3/4/4 4/6/6
f 19/5/5 4/6/6 5/7/7
f 19/5/5 5/7/7 18/8/8
f 18/8/8 5/7/7 6/9/9
f 18/8/8 6/9/9 17/10/10
f 17/10/10 6/9/9 16/11/11
f 16/11/11 6/9/9 7/12/12
f 16/11/11 7/12/12 15/13/13
f 15/13/13 7/12/12 8/14/14
f 15/13/13 8/14/14 9/15/15
f 15/13/13 9/15/15 14/16/16
f 14/16/16 9/15/15 10/17/17
f 14/16/16 10/17/17 13/18/18
f 13/18/18 10/17/17 12/19/19
f 12/19/19 10/17/17 11/20/20
f 2/21/21 21/22/22 3/23/23
f 3/23/23 21/22/22 29/24/24
f 3/23/23 29/24/24 4/25/25
f 4/25/25 29/24/24 5/26/26
f 5/26/26 29/24/24 31/27/27
f 5/26/26 31/27/27 6/28/28
f 6/28/28 31/27/27 33/29/29
f 6/28/28 33/29/29 7/30/30
f 7/30/30 33/29/29 8/31/31
f 8/31/31 33/29/29 35/32/32
f 8/31/31 35/32/32 9/33/33
f 9/33/33 35/32/32 37/34/34
f 9/33/33 37/34/34 10/35/35
f 10/35/35 37/34/34 11/36/20
f 11/36/20 37/34/34 36/37/36
f 11/36/20 36/37/36 27/38/37
f 27/38/37 36/37/36 26/39/38
f 26/39/38 36/37/36 25/40/39
f 25/40/39 36/37/36 34/41/40
f 25/40/39 34/41/40 24/42/41
f 24/42/41 34/41/40 32/43/42
f 24/42/41 32/43/42 23/44/43
f 23/44/43 32/43/42 30/45/44
f 23/44/43 30/45/44 22/46/45
f 22/46/45 30/45/44 28/47/46
f 22/46/45 28/47/46 21/22/22
f 21/22/22 28/47/46 29/24/24
f 31/27/27 29/24/24 28/47/46
f 31/27/27 28/47/46 30/45/44
f 33/29/29 31/27/27 30/45/44
f 33/29/29 30/45/44 32/43/42
f 35/32/32 33/29/29 32/43/42
f 35/32/32 32/43/42 34/41/40
f 37/34/34 35/32/32 34/41/40
f 37/34/34 34/41/40 36/37/36
f 12/48/19 38/49/47 13/50/48
f 13/50/48 38/49/47 46/51/49
f 13/50/48 46/51/49 14/52/50
f 14/52/50 46/51/49 48/53/51
f 14/52/50 48/53/51 15/54/52
f 15/54/52 48/53/51 50/55/53
f 15/54/52 50/55/53 16/56/54
f 16/56/54 50/55/53 17/57/55
f 17/57/55 50/55/53 52/58/56
f 17/57/55 52/58/56 18/59/57
f 18/59/57 52/58/56 54/60/58
f 18/59/57 54/60/58 19/61/59
f 19/61/59 54/60/58 20/62/60
f 20/62/60 54/60/58 1/63/61
f 1/63/61 54/60/58 44/64/62
f 44/64/62 54/60/58 53/65/63
f 44/64/62 53/65/63 43/66/64
f 43/66/64 53/65/63 51/67/65
f 43/66/64 51/67/65 42/68/66
f 42/68/66 51/67/65 49/69/67
f 42/68/66 49/69/67 41/70/68
f 41/70/68 49/69/67 47/71/69
f 41/70/68 47/71/69 40/72/70
f 40/72/70 47/71/69 45/73/71
f 40/72/70 45/73/71 39/74/72
f 39/74/72 45/73/71 38/49/47
f 38/49/47 45/73/71 46/51/49
f 48/53/51 46/51/49 45/73/71
f 50/55/53 48/53/51 47/71/69
f 47/71/69 48/53/51 45/73/71
f 52/58/56 50/55/53 49/69/67
f 49/69/67 50/55/53 47/71/69
f 54/60/58 52/58/56 51/67/65
f 51/67/65 52/58/56 49/69/67
f 53/65/63 54/60/58 51/67/65
f 21/75/22 2/76/21 56/77/73
f 56/77/73 2/76/21 55/78/74
f 1/79/1 57/80/75 2/81/2
f 2/81/2 57/80/75 55/82/76
f 44/83/62 58/84/77 1/85/61
f 1/85/61 58/84/77 57/86/78
f 57/87/79 58/88/80 55/89/81
f 55/89/81 58/88/80 56/90/82
f 26/91/83 25/92/84 27/93/85
f 27/93/85 25/92/84 24/94/86
f 27/93/85 24/94/86 23/95/87
f 23/95/87 22/96/88 27/93/85
f 27/93/85 22/96/88 21/97/89
f 27/93/85 21/97/89 44/98/90
f 44/98/90 21/97/89 56/99/91
f 44/98/90 56/99/91 58/100/92
f 44/98/90 43/101/93 27/93/85
f 27/93/85 43/101/93 38/102/94
f 38/102/94 43/101/93 42/103/95
f 38/102/94 42/103/95 41/104/96
f 41/104/96 40/105/97 38/102/94
f 38/102/94 40/105/97 39/106/98
f 11/107/20 27/108/37 12/109/19
f 12/109/19 27/108/37 38/110/47
g bottom_fin

v -0.100000 0.025000 0.000000
v -0.092143 0.030590 0.000000
v -0.083500 0.035567 0.000000
v -0.074166 0.039874 0.000000
v -0.064244 0.043465 0.000000
v -0.053844 0.046300 0.000000
v -0.043081 0.048348 0.000000
v -0.032074 0.049586 0.000000
v -0.020943 0.050000 0.000000
v 0.007123 0.050000 -0.028066
v 0.006120 0.049586 -0.038194
v 0.005128 0.048348 -0.048210
v 0.004159 0.046300 -0.058003
v 0.003222 0.043465 -0.067466
v 0.002328 0.039874 -0.076494
v 0.001487 0.035567 -0.084987
v 0.000708 0.030590 -0.092851
v 0.000000 0.025000 -0.100000
v 0.049222 0.050000 0.000000
v 0.063411 0.049586 0.000000
v 0.077443 0.048348 0.000000
v 0.091163 0.046300 0.000000
v 0.104420 0.043465 0.000000
v 0.117068 0.039874 0.000000
v 0.128967 0.035567 0.000000
v 0.139984 0.030590 0.000000
v 0.150000 0.025000 -0.000000
v 0.149349 0.017649 0.000000
v 0.147402 0.010368 0.000000
v 0.144178 0.003229 0.000000
v 0.139708 -0.003701 0.000000
v 0.134035 -0.010355 0.000000
v 0.127213 -0.016668 0.000000
v 0.119309 -0.022579 0.000000
v 0.110398 -0.028033 0.000000
v 0.100567 -0.032976 0.000000
v 0.089909 -0.037360 0.000000
v 0.078529 -0.041144 0.000000
v 0.066534 -0.044291 0.000000
v 0.054041 -0.046771 0.000000
v 0.041170 -0.048559 0.000000
v 0.028045 -0.049639 0.000000
v 0.014792 -0.050000 0.000000
v 0.009556 -0.050000 -0.003490
v 0.008620 -0.049639 -0.012950
v 0.007692 -0.048559 -0.022318
v 0.006782 -0.046771 -0.031506
v 0.005899 -0.044291 -0.040423
v 0.005052 -0.041144 -0.048985
v 0.004247 -0.037360 -0.057108
v 0.003494 -0.032976 -0.064715
v 0.002799 -0.028033 -0.071733
v 0.002169 -0.022579 -0.078093
v 0.001611 -0.016668 -0.083735
v 0.001128 -0.010355 -0.088604
v 0.000727 -0.003701 -0.092654
v 0.000411 0.003229 -0.095844
v 0.000184 0.010368 -0.098146
v 0.000046 0.017649 -0.099535
v 0.006066 -0.050000 0.000000
v -0.004330 -0.049639 0.000000
v -0.014626 -0.048559 0.000000
v -0.024723 -0.046771 0.000000
v -0.034524 -0.044291 0.000000
v -0.043933 -0.041144 0.000000
v -0.052861 -0.037360 0.000000
v -0.061222 -0.032976 0.000000
v -0.068934 -0.028033 0.000000
v -0.075924 -0.022579 0.000000
v -0.082125 -0.016668 0.000000
v -0.087476 -0.010355 0.000000
v -0.091926 -0.003701 0.000000
v -0.095433 0.003229 0.000000
v -0.097962 0.010368 0.000000
v -0.099489 0.017649 0.000000
vt 0.132583 0.000000 0.000000
vt 0.127027 0.007885 0.000000
vt -0.008839 0.000000 0.000000
vt -0.004284 0.007885 0.000000
vt 0.120915 0.015770 0.000000
vt 0.000726 0.015770 0.000000
vt 0.114315 0.023655 0.000000
vt 0.006137 0.023655 0.000000
vt 0.107299 0.031540 0.000000
vt 0.011888 0.031540 0.000000
vt 0.099946 0.039425 0.000000
vt 0.017917 0.039425 0.000000
vt 0.092335 0.047310 0.000000
vt 0.024156 0.047310 0.000000
vt 0.084551 0.055195 0.000000
vt 0.030537 0.055195 0.000000
vt 0.076681 0.063080 0.000000
vt 0.036990 0.063080 0.000000
vt 0.068578 0.063080 0.000000
vt 0.017982 0.063080 0.000000
vt 0.075031 0.055195 0.000000
vt 0.006176 0.055195 0.000000
vt 0.081412 0.047310 0.000000
vt -0.005499 0.047310 0.000000
vt 0.087651 0.039425 0.000000
vt -0.016915 0.039425 0.000000
vt 0.093680 0.031540 0.000000
vt -0.027946 0.031540 0.000000
vt 0.099431 0.023655 0.000000
vt -0.038470 0.023655 0.000000
vt 0.104842 0.015770 0.000000
vt -0.048370 0.015770 0.000000
vt 0.109852 0.007885 0.000000
vt -0.057537 0.007885 0.000000
vt 0.114407 0.000000 0.000000
vt -0.065871 0.000000 0.000000
vt 0.050000 0.024222 0.000000
vt 0.021934 -0.017877 0.000000
vt 0.050000 -0.045943 0.000000
vt -0.065871 0.058905 0.000000
vt -0.065329 0.051542 0.000000
vt 0.114407 0.058905 0.000000
vt 0.114111 0.051542 0.000000
vt -0.063709 0.044179 0.000000
vt 0.113225 0.044179 0.000000
vt -0.061026 0.036816 0.000000
vt 0.111759 0.036816 0.000000
vt -0.057307 0.029452 0.000000
vt 0.109727 0.029452 0.000000
vt -0.052587 0.022089 0.000000
vt 0.107147 0.022089 0.000000
vt -0.046911 0.014726 0.000000
vt 0.104045 0.014726 0.000000
vt -0.040334 0.007363 0.000000
vt 0.100450 0.007363 0.000000
vt -0.032920 -0.000000 0.000000
vt 0.096398 -0.000000 0.000000
vt -0.024740 -0.007363 0.000000
vt 0.091927 -0.007363 0.000000
vt -0.015872 -0.014726 0.000000
vt 0.087081 -0.014726 0.000000
vt -0.006403 -0.022089 0.000000
vt 0.081906 -0.022089 0.000000
vt 0.003577 -0.029452 0.000000
vt 0.076451 -0.029452 0.000000
vt 0.013972 -0.036816 0.000000
vt 0.070770 -0.036816 0.000000
vt 0.024682 -0.044179 0.000000
vt 0.064917 -0.044179 0.000000
vt 0.035602 -0.051542 0.000000
vt 0.058948 -0.051542 0.000000
vt 0.046629 -0.058905 0.000000
vt 0.052922 -0.058905 0.000000
vt 0.052646 -0.058905 0.000000
vt 0.057583 -0.058905 0.000000
vt 0.046620 -0.051542 0.000000
vt 0.064934 -0.051542 0.000000
vt 0.040651 -0.044179 0.000000
vt 0.072214 -0.044179 0.000000
vt 0.034798 -0.036816 0.000000
vt 0.079354 -0.036816 0.000000
vt 0.029117 -0.029452 0.000000
vt 0.086284 -0.029452 0.000000
vt 0.023662 -0.022089 0.000000
vt 0.092937 -0.022089 0.000000
vt 0.018487 -0.014726 0.000000
vt 0.099250 -0.014726 0.000000
vt 0.013641 -0.007363 0.000000
vt 0.105162 -0.007363 0.000000
vt 0.009170 -0.000000 0.000000
vt 0.110616 -0.000000 0.000000
vt 0.005118 0.007363 0.000000
vt 0.115558 0.007363 0.000000
vt 0.001523 0.014726 0.000000
vt 0.119943 0.014726 0.000000
vt -0.001579 0.022089 0.000000
vt 0.123727 0.022089 0.000000
vt -0.004159 0.029452 0.000000
vt 0.126873 0.029452 0.000000
vt -0.006191 0.036816 0.000000
vt 0.129353 0.036816 0.000000
vt -0.007657 0.044179 0.000000
vt 0.131141 0.044179 0.000000
vt -0.008543 0.051542 0.000000
vt 0.132221 0.051542 0.000000
vt -0.008839 0.058905 0.000000
vt 0.132583 0.058905 0.000000
vt -0.050000 -0.018934 0.000000
vt -0.046510 -0.015444 0.000000
vt -0.050000 -0.010208 0.000000
vt 0.250000 0.025000 0.000000
vt 0.239984 0.030590 0.000000
vt 0.249349 0.017649 0.000000
vt 0.228967 0.035567 0.000000
vt 0.247402 0.010368 0.000000
vt 0.217068 0.039874 0.000000
vt 0.244178 0.003229 0.000000
vt 0.204420 0.043465 0.000000
vt 0.191163 0.046300 0.000000
vt 0.177443 0.048348 0.000000
vt 0.163411 0.049586 0.000000
vt 0.149222 0.050000 0.000000
vt 0.079057 0.050000 0.000000
vt 0.004567 0.003229 0.000000
vt 0.008074 -0.003701 0.000000
vt 0.012524 -0.010355 0.000000
vt 0.067926 0.049586 0.000000
vt 0.056919 0.048348 0.000000
vt 0.046156 0.046300 0.000000
vt 0.035756 0.043465 0.000000
vt 0.025834 0.039874 0.000000
vt 0.002038 0.010368 0.000000
vt 0.016500 0.035567 0.000000
vt 0.000511 0.017649 0.000000
vt 0.007857 0.030590 0.000000
vt 0.000000 0.025000 0.000000
vt 0.017875 -0.016668 0.000000
vt 0.219309 -0.022579 0.000000
vt 0.227213 -0.016668 0.000000
vt 0.234035 -0.010355 0.000000
vt 0.239708 -0.003701 0.000000
vt 0.210398 -0.028033 0.000000
vt 0.024076 -0.022579 0.000000
vt 0.200567 -0.032976 0.000000
vt 0.189909 -0.037360 0.000000
vt 0.031066 -0.028033 0.000000
vt 0.178529 -0.041144 0.000000
vt 0.166534 -0.044291 0.000000
vt 0.038778 -0.032976 0.000000
vt 0.154041 -0.046771 0.000000
vt 0.141170 -0.048559 0.000000
vt 0.128045 -0.049639 0.000000
vt 0.047139 -0.037360 0.000000
vt 0.114792 -0.050000 0.000000
vt 0.056067 -0.041144 0.000000
vt 0.106066 -0.050000 0.000000
vt 0.065476 -0.044291 0.000000
vt 0.075277 -0.046771 0.000000
vt 0.085374 -0.048559 0.000000
vt 0.095670 -0.049639 0.000000
vn -0.527046 0.666667 -0.527046
vn -0.474667 0.741203 -0.474667
vn -0.527046 0.666667 -0.527046
vn -0.474667 0.741203 -0.474667
vn -0.417046 0.807555 -0.417046
vn -0.417046 0.807555 -0.417046
vn -0.354820 0.864989 -0.354820
vn -0.354820 0.864989 -0.354820
vn -0.288675 0.912871 -0.288675
vn -0.288675 0.912871 -0.288675
vn -0.219343 0.950672 -0.219343
vn -0.219343 0.950672 -0.219343
vn -0.147588 0.977975 -0.147588
vn -0.147588 0.977975 -0.147588
vn -0.074204 0.994479 -0.074204
vn -0.074204 0.994479 -0.074204
vn 0.000000 1.000000 0.000000
vn -0.000000 1.000000 -0.000000
vn 0.000000 1.000000 -0.000000
vn 0.058210 0.994479 -0.087315
vn 0.058210 0.994479 -0.087315
vn 0.115778 0.977975 -0.173667
vn 0.115778 0.977975 -0.173667
vn 0.172067 0.950672 -0.258100
vn 0.172067 0.950672 -0.258100
vn 0.226455 0.912871 -0.339683
vn 0.226455 0.912871 -0.339683
vn 0.278343 0.864989 -0.417515
vn 0.278343 0.864989 -0.417515
vn 0.327158 0.807555 -0.490737
vn 0.327158 0.807555 -0.490737
vn 0.372359 0.741203 -0.558539
vn 0.372359 0.741203 -0.558539
vn 0.413449 0.666667 -0.620174
vn 0.413449 0.666667 -0.620174
vn 0.554700 -0.000000 -0.832050
vn 0.552029 -0.098017 -0.828044
vn 0.554700 0.000000 -0.832050
vn 0.552029 -0.098017 -0.828044
vn 0.544042 -0.195090 -0.816063
vn 0.544042 -0.195090 -0.816063
vn 0.530815 -0.290285 -0.796222
vn 0.530815 -0.290285 -0.796222
vn 0.512476 -0.382683 -0.768714
vn 0.512476 -0.382683 -0.768714
vn 0.489202 -0.471397 -0.733803
vn 0.489202 -0.471397 -0.733803
vn 0.461216 -0.555570 -0.691825
vn 0.461216 -0.555570 -0.691825
vn 0.428789 -0.634393 -0.643184
vn 0.428789 -0.634393 -0.643184
vn 0.392232 -0.707107 -0.588348
vn 0.392232 -0.707107 -0.588348
vn 0.351898 -0.773010 -0.527847
vn 0.351898 -0.773010 -0.527847
vn 0.308175 -0.831470 -0.462262
vn 0.308175 -0.831470 -0.462262
vn 0.261484 -0.881921 -0.392226
vn 0.261484 -0.881921 -0.392226
vn 0.212275 -0.923880 -0.318412
vn 0.212275 -0.923880 -0.318412
vn 0.161021 -0.956940 -0.241531
vn 0.161021 -0.956940 -0.241531
vn 0.108217 -0.980785 -0.162325
vn 0.108217 -0.980785 -0.162325
vn 0.054370 -0.995185 -0.081555
vn 0.054370 -0.995185 -0.081555
vn 0.000000 -1.000000 -0.000000
vn -0.000000 -1.000000 0.000000
vn -0.000000 -1.000000 -0.000000
vn -0.069309 -0.995185 -0.069309
vn -0.069309 -0.995185 -0.069309
vn -0.137950 -0.980785 -0.137950
vn -0.137950 -0.980785 -0.137950
vn -0.205262 -0.956940 -0.205262
vn -0.205262 -0.956940 -0.205262
vn -0.270598 -0.923880 -0.270598
vn -0.270598 -0.923880 -0.270598
vn -0.333328 -0.881921 -0.333328
vn -0.333328 -0.881921 -0.333328
vn -0.392847 -0.831470 -0.392847
vn -0.392847 -0.831470 -0.392847
vn -0.448584 -0.773010 -0.448584
vn -0.448584 -0.773010 -0.448584
vn -0.500000 -0.707107 -0.500000
vn -0.500000 -0.707107 -0.500000
vn -0.546601 -0.634393 -0.546601
vn -0.546601 -0.634393 -0.546601
vn -0.587938 -0.555570 -0.587938
vn -0.587938 -0.555570 -0.587938
vn -0.623613 -0.471397 -0.623613
vn -0.623613 -0.471397 -0.623613
vn -0.653281 -0.382683 -0.653281
vn -0.653281 -0.382683 -0.653281
vn -0.676659 -0.290285 -0.676659
vn -0.676659 -0.290285 -0.676659
vn -0.693520 -0.195090 -0.693520
vn -0.693520 -0.195090 -0.693520
vn -0.703702 -0.098017 -0.703702
vn -0.703702 -0.098017 -0.703702
vn -0.707107 0.000000 -0.707107
vn -0.707107 0.000000 -0.707107
vn 0.000000 0.000000 1.000000
vn 0.000000 0.000000 1.000000
vn 0.000000 0.000000 1.000000
vn 0.000000 0.000000 1.000000
vn 0.000000 0.000000 1.000000
vn 0.000000 0.000000 1.000000
vn 0.000000 0.000000 1.000000
vn 0.000000 0.000000 1.000000
vn 0.000000 0.000000 1.000000
vn 0.000000 0.000000 1.000000
vn 0.000000 0.000000 1.000000
vn 0.000000 0.000000 1.000000
vn 0.000000 0.000000 1.000000
vn 0.000000 0.000000 1.000000
vn 0.000000 0.000000 1.000000
vn 0.000000 0.000000 1.000000
vn 0.000000 0.000000 1.000000
vn 0.000000 0.000000 1.000000
vn 0.000000 0.000000 1.000000
vn 0.000000 0.000000 1.000000
vn 0.000000 0.000000 1.000000
vn 0.000000 0.000000 1.000000
vn 0.000000 0.000000 1.000000
vn 0.000000 0.000000 1.000000
vn 0.000000 0.000000 1.000000
vn 0.000000 0.000000 1.000000
vn 0.000000 0.000000 1.000000
vn 0.000000 0.000000 1.000000
vn 0.000000 0.000000 1.000000
vn 0.000000 0.000000 1.000000
vn 0.000000 0.000000 1.000000
vn 0.000000 0.000000 1.000000
vn 0.000000 0.000000 1.000000
vn 0.000000 0.000000 1.000000
vn 0.000000 0.000000 1.000000
vn 0.000000 0.000000 1.000000
vn 0.000000 0.000000 1.000000
vn 0.000000 0.000000 1.000000
vn 0.000000 0.000000 1.000000
vn 0.000000 0.000000 1.000000
vn 0.000000 0.000000 1.000000
vn 0.000000 0.000000 1.000000
vn 0.000000 0.000000 1.000000
vn 0.000000 0.000000 1.000000
vn 0.000000 0.000000 1.000000
vn 0.000000 0.000000 1.000000
vn 0.000000 0.000000 1.000000
vn 0.000000 0.000000 1.000000
vn 0.000000 0.000000 1.000000
vn 0.000000 0.000000 1.000000
f 59/111/99 60/112/100 76/113/101
f 76/113/101 60/112/100 75/114/102
f 75/114/102 60/112/100 61/115/103
f 75/114/102 61/115/103 74/116/104
f 74/116/104 61/115/103 62/117/105
f 74/116/104 62/117/105 73/118/106
f 73/118/106 62/117/105 63/119/107
f 73/118/106 63/119/107 72/120/108
f 72/120/108 63/119/107 64/121/109
f 72/120/108 64/121/109 71/122/110
f 71/122/110 64/121/109 65/123/111
f 71/122/110 65/123/111 70/124/112
f 70/124/112 65/123/111 66/125/113
f 70/124/112 66/125/113 69/126/114
f 69/126/114 66/125/113 67/127/115
f 69/126/114 67/127/115 68/128/116
f 68/129/116 77/130/117 69/131/118
f 69/131/118 77/130/117 78/132/119
f 69/131/118 78/132/119 70/133/120
f 70/133/120 78/132/119 79/134/121
f 70/133/120 79/134/121 71/135/122
f 71/135/122 79/134/121 80/136/123
f 71/135/122 80/136/123 72/137/124
f 72/137/124 80/136/123 81/138/125
f 72/137/124 81/138/125 73/139/126
f 73/139/126 81/138/125 82/140/127
f 73/139/126 82/140/127 74/141/128
f 74/141/128 82/140/127 83/142/129
f 74/141/128 83/142/129 75/143/130
f 75/143/130 83/142/129 84/144/131
f 75/143/130 84/144/131 76/145/132
f 76/145/132 84/144/131 85/146/133
f 77/147/117 68/148/116 67/149/115
f 85/150/134 86/151/135 76/152/136
f 76/152/136 86/151/135 117/153/137
f 117/153/137 86/151/135 87/154/138
f 117/153/137 87/154/138 116/155/139
f 116/155/139 87/154/138 88/156/140
f 116/155/139 88/156/140 115/157/141
f 115/157/141 88/156/140 89/158/142
f 115/157/141 89/158/142 114/159/143
f 114/159/143 89/158/142 90/160/144
f 114/159/143 90/160/144 113/161/145
f 113/161/145 90/160/144 91/162/146
f 113/161/145 91/162/146 112/163/147
f 112/163/147 91/162/146 92/164/148
f 112/163/147 92/164/148 111/165/149
f 111/165/149 92/164/148 93/166/150
f 111/165/149 93/166/150 110/167/151
f 110/167/151 93/166/150 94/168/152
f 110/167/151 94/168/152 109/169/153
f 109/169/153 94/168/152 95/170/154
f 109/169/153 95/170/154 108/171/155
f 108/171/155 95/170/154 96/172/156
f 108/171/155 96/172/156 107/173/157
f 107/173/157 96/172/156 97/174/158
f 107/173/157 97/174/158 106/175/159
f 106/175/159 97/174/158 98/176/160
f 106/175/159 98/176/160 105/177/161
f 105/177/161 98/176/160 99/178/162
f 105/177/161 99/178/162 104/179/163
f 104/179/163 99/178/162 100/180/164
f 104/179/163 100/180/164 103/181/165
f 103/181/165 100/180/164 101/182/166
f 103/181/165 101/182/166 102/183/167
f 102/184/167 118/185/168 103/186/169
f 103/186/169 118/185/168 119/187/170
f 103/186/169 119/187/170 104/188/171
f 104/188/171 119/187/170 120/189/172
f 104/188/171 120/189/172 105/190/173
f 105/190/173 120/189/172 121/191/174
f 105/190/173 121/191/174 106/192/175
f 106/192/175 121/191/174 122/193/176
f 106/192/175 122/193/176 107/194/177
f 107/194/177 122/193/176 123/195/178
f 107/194/177 123/195/178 108/196/179
f 108/196/179 123/195/178 124/197/180
f 108/196/179 124/197/180 109/198/181
f 109/198/181 124/197/180 125/199/182
f 109/198/181 125/199/182 110/200/183
f 110/200/183 125/199/182 126/201/184
f 110/200/183 126/201/184 111/202/185
f 111/202/185 126/201/184 127/203/186
f 111/202/185 127/203/186 112/204/187
f 112/204/187 127/203/186 128/205/188
f 112/204/187 128/205/188 113/206/189
f 113/206/189 128/205/188 129/207/190
f 113/206/189 129/207/190 114/208/191
f 114/208/191 129/207/190 130/209/192
f 114/208/191 130/209/192 115/210/193
f 115/210/193 130/209/192 131/211/194
f 115/210/193 131/211/194 116/212/195
f 116/212/195 131/211/194 132/213/196
f 116/212/195 132/213/196 117/214/197
f 117/214/197 132/213/196 133/215/198
f 117/214/197 133/215/198 76/216/199
f 76/216/199 133/215/198 59/217/200
f 118/218/168 102/219/167 101/220/166
f 85/221/201 84/222/202 86/223/203
f 86/223/203 84/222/202 83/224/204
f 86/223/203 83/224/204 87/225/205
f 87/225/205 83/224/204 82/226/206
f 87/225/205 82/226/206 88/227/207
f 88/227/207 82/226/206 81/228/208
f 88/227/207 81/228/208 80/229/209
f 80/229/209 79/230/210 88/227/207
f 88/227/207 79/230/210 78/231/211
f 88/227/207 78/231/211 77/232/212
f 67/233/213 131/234/214 77/232/212
f 77/232/212 131/234/214 130/235/215
f 77/232/212 130/235/215 129/236/216
f 66/237/217 65/238/218 67/233/213
f 67/233/213 65/238/218 64/239/219
f 67/233/213 64/239/219 63/240/220
f 63/240/220 62/241/221 67/233/213
f 67/233/213 62/241/221 132/242/222
f 67/233/213 132/242/222 131/234/214
f 62/241/221 61/243/223 132/242/222
f 132/242/222 61/243/223 133/244/224
f 133/244/224 61/243/223 60/245/225
f 133/244/224 60/245/225 59/246/226
f 128/247/227 92/248/228 129/236/216
f 129/236/216 92/248/228 91/249/229
f 129/236/216 91/249/229 77/232/212
f 77/232/212 91/249/229 90/250/230
f 77/232/212 90/250/230 89/251/231
f 92/248/228 128/247/227 93/252/232
f 93/252/232 128/247/227 127/253/233
f 93/252/232 127/253/233 94/254/234
f 94/254/234 127/253/233 95/255/235
f 95/255/235 127/253/233 126/256/236
f 95/255/235 126/256/236 96/257/237
f 96/257/237 126/256/236 97/258/238
f 97/258/238 126/256/236 125/259/239
f 97/258/238 125/259/239 98/260/240
f 98/260/240 125/259/239 99/261/241
f 99/261/241 125/259/239 100/262/242
f 100/262/242 125/259/239 124/263/243
f 100/262/242 124/263/243 101/264/244
f 101/264/244 124/263/243 123/265/245
f 101/264/244 123/265/245 118/266/246
f 118/266/246 123/265/245 122/267/247
f 118/266/246 122/267/247 121/268/248
f 121/268/248 120/269/249 118/266/246
f 118/266/246 120/269/249 119/270/250
f 89/251/231 88/227/207 77/232/212
g mast

v 0.023907 -0.030000 1.185000
v 0.023226 -0.035176 1.185000
v 0.021228 -0.040000 1.185000
v 0.018049 -0.044142 1.185000
v 0.013907 -0.047321 1.185000
v 0.009084 -0.049319 1.185000
v 0.003907 -0.050000 1.185000
v 0.003907 -0.050000 0.180000
v 0.009084 -0.049319 0.180000
v 0.013907 -0.047321 0.180000
v 0.018049 -0.044142 0.180000
v 0.021228 -0.040000 0.180000
v 0.023226 -0.035176 0.180000
v 0.023907 -0.030000 0.180000
v 0.023226 -0.035176 1.073333
v 0.023226 -0.035176 0.961667
v 0.023226 -0.035176 0.850000
v 0.023226 -0.035176 0.738333
v 0.023226 -0.035176 0.626667
v 0.023226 -0.035176 0.515000
v 0.023226 -0.035176 0.403333
v 0.023226 -0.035176 0.291667
v 0.021228 -0.040000 1.073333
v 0.021228 -0.040000 0.961667
v 0.021228 -0.040000 0.850000
v 0.021228 -0.040000 0.738333
v 0.021228 -0.040000 0.626667
v 0.021228 -0.040000 0.515000
v 0.021228 -0.040000 0.403333
v 0.021228 -0.040000 0.291667
v 0.018049 -0.044142 1.073333
v 0.018049 -0.044142 0.961667
v 0.018049 -0.044142 0.850000
v 0.018049 -0.044142 0.738333
v 0.018049 -0.044142 0.626667
v 0.018049 -0.044142 0.515000
v 0.018049 -0.044142 0.403333
v 0.018049 -0.044142 0.291667
v 0.013907 -0.047321 1.073333
v 0.013907 -0.047321 0.961667
v 0.013907 -0.047321 0.850000
v 0.013907 -0.047321 0.738333
v 0.013907 -0.047321 0.626667
v 0.013907 -0.047321 0.515000
v 0.013907 -0.047321 0.403333
v 0.013907 -0.047321 0.291667
v 0.009084 -0.049319 1.073333
v 0.009084 -0.049319 0.961667
v 0.009084 -0.049319 0.850000
v 0.009084 -0.049319 0.738333
v 0.009084 -0.049319 0.626667
v 0.009084 -0.049319 0.515000
v 0.009084 -0.049319 0.403333
v 0.009084 -0.049319 0.291667
v -0.005000 -0.050000 1.185000
v -0.005000 -0.050000 0.180000
v 0.023907 0.030000 1.185000
v 0.023226 0.035176 1.185000
v 0.021228 0.040000 1.185000
v 0.018049 0.044142 1.185000
v 0.013907 0.047321 1.185000
v 0.009084 0.049319 1.185000
v 0.003907 0.050000 1.185000
v -0.005000 0.050000 1.185000
v -0.010176 0.049319 1.185000
v -0.015000 0.047321 1.185000
v -0.019142 0.044142 1.185000
v -0.022321 0.040000 1.185000
v -0.024319 0.035176 1.185000
v -0.025000 0.030000 1.185000
v -0.025000 -0.030000 1.185000
v -0.024319 -0.035176 1.185000
v -0.022321 -0.040000 1.185000
v -0.019142 -0.044142 1.185000
v -0.015000 -0.047321 1.185000
v -0.010176 -0.049319 1.185000
v -0.025000 -0.030000 0.180000
v -0.024319 -0.035176 0.180000
v -0.022321 -0.040000 0.180000
v -0.019142 -0.044142 0.180000
v -0.015000 -0.047321 0.180000
v -0.010176 -0.049319 0.180000
v -0.024319 -0.035176 0.291667
v -0.024319 -0.035176 0.403333
v -0.024319 -0.035176 0.515000
v -0.024319 -0.035176 0.626667
v -0.024319 -0.035176 0.738333
v -0.024319 -0.035176 0.850000
v -0.024319 -0.035176 0.961667
v -0.024319 -0.035176 1.073333
v -0.022321 -0.040000 0.291667
v -0.022321 -0.040000 0.403333
v -0.022321 -0.040000 0.515000
v -0.022321 -0.040000 0.626667
v -0.022321 -0.040000 0.738333
v -0.022321 -0.040000 0.850000
v -0.022321 -0.040000 0.961667
v -0.022321 -0.040000 1.073333
v -0.019142 -0.044142 0.291667
v -0.019142 -0.044142 0.403333
v -0.019142 -0.044142 0.515000
v -0.019142 -0.044142 0.626667
v -0.019142 -0.044142 0.738333
v -0.019142 -0.044142 0.850000
v -0.019142 -0.044142 0.961667
v -0.019142 -0.044142 1.073333
v -0.015000 -0.047321 0.291667
v -0.015000 -0.047321 0.403333
v -0.015000 -0.047321 0.515000
v -0.015000 -0.047321 0.626667
v -0.015000 -0.047321 0.738333
v -0.015000 -0.047321 0.850000
v -0.015000 -0.047321 0.961667
v -0.015000 -0.047321 1.073333
v -0.010176 -0.049319 0.291667
v -0.010176 -0.049319 0.403333
v -0.010176 -0.049319 0.515000
v -0.010176 -0.049319 0.626667
v -0.010176 -0.049319 0.738333
v -0.010176 -0.049319 0.850000
v -0.010176 -0.049319 0.961667
v -0.010176 -0.049319 1.073333
v -0.025000 0.030000 0.180000
v 0.023907 0.030000 0.180000
v 0.023226 0.035176 0.180000
v 0.021228 0.040000 0.180000
v 0.018049 0.044142 0.180000
v 0.013907 0.047321 0.180000
v 0.009084 0.049319 0.180000
v 0.003907 0.050000 0.180000
v 0.023226 0.035176 0.291667
v 0.023226 0.035176 0.403333
v 0.023226 0.035176 0.515000
v 0.023226 0.035176 0.626667
v 0.023226 0.035176 0.738333
v 0.023226 0.035176 0.850000
v 0.023226 0.035176 0.961667
v 0.023226 0.035176 1.073333
v 0.021228 0.040000 0.291667
v 0.021228 0.040000 0.403333
v 0.021228 0.040000 0.515000
v 0.021228 0.040000 0.626667
v 0.021228 0.040000 0.738333
v 0.021228 0.040000 0.850000
v 0.021228 0.040000 0.961667
v 0.021228 0.040000 1.073333
v 0.018049 0.044142 0.291667
v 0.018049 0.044142 0.403333
v 0.018049 0.044142 0.515000
v 0.018049 0.044142 0.626667
v 0.018049 0.044142 0.738333
v 0.018049 0.044142 0.850000
v 0.018049 0.044142 0.961667
v 0.018049 0.044142 1.073333
v 0.013907 0.047321 0.291667
v 0.013907 0.047321 0.403333
v 0.013907 0.047321 0.515000
v 0.013907 0.047321 0.626667
v 0.013907 0.047321 0.738333
v 0.013907 0.047321 0.850000
v 0.013907 0.047321 0.961667
v 0.013907 0.047321 1.073333
v 0.009084 0.049319 0.291667
v 0.009084 0.049319 0.403333
v 0.009084 0.049319 0.515000
v 0.009084 0.049319 0.626667
v 0.009084 0.049319 0.738333
v 0.009084 0.049319 0.850000
v 0.009084 0.049319 0.961667
v 0.009084 0.049319 1.073333
v -0.005000 0.050000 0.180000
v -0.010176 0.049319 0.180000
v -0.015000 0.047321 0.180000
v -0.019142 0.044142 0.180000
v -0.022321 0.040000 0.180000
v -0.024319 0.035176 0.180000
v -0.024319 0.035176 1.073333
v -0.024319 0.035176 0.961667
v -0.024319 0.035176 0.850000
v -0.024319 0.035176 0.738333
v -0.024319 0.035176 0.626667
v -0.024319 0.035176 0.515000
v -0.024319 0.035176 0.403333
v -0.024319 0.035176 0.291667
v -0.022321 0.040000 1.073333
v -0.022321 0.040000 0.961667
v -0.022321 0.040000 0.850000
v -0.022321 0.040000 0.738333
v -0.022321 0.040000 0.626667
v -0.022321 0.040000 0.515000
v -0.022321 0.040000 0.403333
v -0.022321 0.040000 0.291667
v -0.019142 0.044142 1.073333
v -0.019142 0.044142 0.961667
v -0.019142 0.044142 0.850000
v -0.019142 0.044142 0.738333
v -0.019142 0.044142 0.626667
v -0.019142 0.044142 0.515000
v -0.019142 0.044142 0.403333
v -0.019142 0.044142 0.291667
v -0.015000 0.047321 1.073333
v -0.015000 0.047321 0.961667
v -0.015000 0.047321 0.850000
v -0.015000 0.047321 0.738333
v -0.015000 0.047321 0.626667
v -0.015000 0.047321 0.515000
v -0.015000 0.047321 0.403333
v -0.015000 0.047321 0.291667
v -0.010176 0.049319 1.073333
v -0.010176 0.049319 0.961667
v -0.010176 0.049319 0.850000
v -0.010176 0.049319 0.738333
v -0.010176 0.049319 0.626667
v -0.010176 0.049319 0.515000
v -0.010176 0.049319 0.403333
v -0.010176 0.049319 0.291667
vt -0.251250 0.010472 0.000000
vt -0.139583 0.010472 0.000000
vt -0.251250 0.015708 0.000000
vt -0.027917 0.010472 0.000000
vt 0.083750 0.010472 0.000000
vt 0.083750 0.005236 0.000000
vt 0.195417 0.005236 0.000000
vt 0.195417 -0.000000 0.000000
vt 0.307083 -0.000000 0.000000
vt 0.307083 -0.005236 0.000000
vt 0.418750 -0.005236 0.000000
vt 0.418750 -0.010472 0.000000
vt 0.530417 -0.010472 0.000000
vt 0.753750 -0.015708 0.000000
vt 0.642083 -0.010472 0.000000
vt 0.753750 -0.010472 0.000000
vt 0.642083 -0.005236 0.000000
vt 0.753750 -0.005236 0.000000
vt 0.642083 -0.000000 0.000000
vt 0.753750 -0.000000 0.000000
vt 0.642083 0.005236 0.000000
vt 0.753750 0.005236 0.000000
vt 0.642083 0.010472 0.000000
vt 0.753750 0.010472 0.000000
vt 0.753750 0.015708 0.000000
vt -0.139583 0.005236 0.000000
vt -0.251250 0.005236 0.000000
vt -0.139583 -0.000000 0.000000
vt -0.251250 -0.000000 0.000000
vt -0.139583 -0.005236 0.000000
vt -0.251250 -0.005236 0.000000
vt -0.139583 -0.010472 0.000000
vt -0.251250 -0.010472 0.000000
vt -0.251250 -0.015708 0.000000
vt 0.195417 -0.010472 0.000000
vt 0.083750 -0.010472 0.000000
vt -0.027917 -0.010472 0.000000
vt -0.027917 -0.005236 0.000000
vt 0.307083 0.010472 0.000000
vt 0.418750 0.010472 0.000000
vt 0.530417 0.010472 0.000000
vt 0.530417 0.005236 0.000000
vt -0.027917 0.005236 0.000000
vt -0.027917 -0.000000 0.000000
vt 0.195417 0.010472 0.000000
vt 0.307083 0.005236 0.000000
vt 0.418750 0.005236 0.000000
vt 0.418750 -0.000000 0.000000
vt 0.083750 -0.000000 0.000000
vt 0.195417 -0.005236 0.000000
vt 0.307083 -0.010472 0.000000
vt 0.530417 -0.000000 0.000000
vt 0.083750 -0.005236 0.000000
vt 0.530417 -0.005236 0.000000
vt 0.502500 0.004454 0.000000
vt -0.502500 0.004454 0.000000
vt 0.502500 -0.004454 0.000000
vt -0.502500 -0.004454 0.000000
vt 0.034084 -0.049319 0.000000
vt 0.048907 -0.030000 0.000000
vt 0.028907 -0.050000 0.000000
vt 0.028907 0.050000 0.000000
vt 0.020000 0.050000 0.000000
vt 0.038907 -0.047321 0.000000
vt 0.043049 -0.044142 0.000000
vt 0.046228 -0.040000 0.000000
vt 0.048226 -0.035176 0.000000
vt 0.034084 0.049319 0.000000
vt 0.048907 0.030000 0.000000
vt 0.038907 0.047321 0.000000
vt 0.043049 0.044142 0.000000
vt 0.046228 0.040000 0.000000
vt 0.048226 0.035176 0.000000
vt 0.014824 0.049319 0.000000
vt 0.000000 -0.030000 0.000000
vt 0.020000 -0.050000 0.000000
vt 0.000000 0.030000 0.000000
vt 0.010000 0.047321 0.000000
vt 0.005858 0.044142 0.000000
vt 0.002679 0.040000 0.000000
vt 0.000681 0.035176 0.000000
vt 0.000681 -0.035176 0.000000
vt 0.002679 -0.040000 0.000000
vt 0.005858 -0.044142 0.000000
vt 0.010000 -0.047321 0.000000
vt 0.014824 -0.049319 0.000000
vt -0.251250 0.010472 0.000000
vt -0.139583 0.010472 0.000000
vt -0.251250 0.015708 0.000000
vt -0.027917 0.010472 0.000000
vt 0.083750 0.010472 0.000000
vt 0.083750 0.005236 0.000000
vt 0.195417 0.005236 0.000000
vt 0.195417 -0.000000 0.000000
vt 0.307083 -0.000000 0.000000
vt 0.307083 -0.005236 0.000000
vt 0.418750 -0.005236 0.000000
vt 0.418750 -0.010472 0.000000
vt 0.530417 -0.010472 0.000000
vt 0.753750 -0.015708 0.000000
vt 0.642083 -0.010472 0.000000
vt 0.753750 -0.010472 0.000000
vt 0.642083 -0.005236 0.000000
vt 0.753750 -0.005236 0.000000
vt 0.642083 -0.000000 0.000000
vt 0.753750 -0.000000 0.000000
vt 0.642083 0.005236 0.000000
vt 0.753750 0.005236 0.000000
vt 0.642083 0.010472 0.000000
vt 0.753750 0.010472 0.000000
vt 0.753750 0.015708 0.000000
vt -0.139583 0.005236 0.000000
vt -0.251250 0.005236 0.000000
vt -0.139583 -0.000000 0.000000
vt -0.251250 -0.000000 0.000000
vt -0.139583 -0.005236 0.000000
vt -0.251250 -0.005236 0.000000
vt -0.139583 -0.010472 0.000000
vt -0.251250 -0.010472 0.000000
vt -0.251250 -0.015708 0.000000
vt 0.195417 -0.010472 0.000000
vt 0.083750 -0.010472 0.000000
vt -0.027917 -0.010472 0.000000
vt -0.027917 -0.005236 0.000000
vt 0.307083 0.010472 0.000000
vt 0.418750 0.010472 0.000000
vt 0.530417 0.010472 0.000000
vt 0.530417 0.005236 0.000000
vt -0.027917 0.005236 0.000000
vt -0.027917 -0.000000 0.000000
vt 0.195417 0.010472 0.000000
vt 0.307083 0.005236 0.000000
vt 0.418750 0.005236 0.000000
vt 0.418750 -0.000000 0.000000
vt 0.083750 -0.000000 0.000000
vt 0.195417 -0.005236 0.000000
vt 0.307083 -0.010472 0.000000
vt 0.530417 -0.000000 0.000000
vt 0.083750 -0.005236 0.000000
vt 0.530417 -0.005236 0.000000
vt 0.000000 -0.030000 0.000000
vt 1.005000 -0.030000 0.000000
vt 0.000000 0.030000 0.000000
vt 1.005000 0.030000 0.000000
vt -0.753750 0.010472 0.000000
vt -0.642083 0.010472 0.000000
vt -0.753750 0.015708 0.000000
vt -0.530417 0.010472 0.000000
vt -0.418750 0.010472 0.000000
vt -0.418750 0.005236 0.000000
vt -0.307083 0.005236 0.000000
vt -0.307083 -0.000000 0.000000
vt -0.195417 -0.000000 0.000000
vt -0.195417 -0.005236 0.000000
vt -0.083750 -0.005236 0.000000
vt -0.083750 -0.010472 0.000000
vt 0.027917 -0.010472 0.000000
vt 0.251250 -0.015708 0.000000
vt 0.139583 -0.010472 0.000000
vt 0.251250 -0.010472 0.000000
vt 0.139583 -0.005236 0.000000
vt 0.251250 -0.005236 0.000000
vt 0.139583 -0.000000 0.000000
vt 0.251250 -0.000000 0.000000
vt 0.139583 0.005236 0.000000
vt 0.251250 0.005236 0.000000
vt 0.139583 0.010472 0.000000
vt 0.251250 0.010472 0.000000
vt 0.251250 0.015708 0.000000
vt -0.642083 0.005236 0.000000
vt -0.753750 0.005236 0.000000
vt -0.642083 -0.000000 0.000000
vt -0.753750 -0.000000 0.000000
vt -0.642083 -0.005236 0.000000
vt -0.753750 -0.005236 0.000000
vt -0.642083 -0.010472 0.000000
vt -0.753750 -0.010472 0.000000
vt -0.753750 -0.015708 0.000000
vt -0.307083 -0.010472 0.000000
vt -0.418750 -0.010472 0.000000
vt -0.530417 -0.010472 0.000000
vt -0.530417 -0.005236 0.000000
vt -0.195417 0.010472 0.000000
vt -0.083750 0.010472 0.000000
vt 0.027917 0.010472 0.000000
vt 0.027917 0.005236 0.000000
vt -0.530417 0.005236 0.000000
vt -0.530417 -0.000000 0.000000
vt -0.307083 0.010472 0.000000
vt -0.195417 0.005236 0.000000
vt -0.083750 0.005236 0.000000
vt -0.083750 -0.000000 0.000000
vt -0.418750 -0.000000 0.000000
vt -0.307083 -0.005236 0.000000
vt -0.195417 -0.010472 0.000000
vt 0.027917 -0.000000 0.000000
vt -0.418750 -0.005236 0.000000
vt 0.027917 -0.005236 0.000000
vt 0.502500 0.004454 0.000000
vt -0.502500 0.004454 0.000000
vt 0.502500 -0.004454 0.000000
vt -0.502500 -0.004454 0.000000
vt -0.753750 0.010472 0.000000
vt -0.642083 0.010472 0.000000
vt -0.753750 0.015708 0.000000
vt -0.530417 0.010472 0.000000
vt -0.418750 0.010472 0.000000
vt -0.418750 0.005236 0.000000
vt -0.307083 0.005236 0.000000
vt -0.307083 -0.000000 0.000000
vt -0.195417 -0.000000 0.000000
vt -0.195417 -0.005236 0.000000
vt -0.083750 -0.005236 0.000000
vt -0.083750 -0.010472 0.000000
vt 0.027917 -0.010472 0.000000
vt 0.251250 -0.015708 0.000000
vt 0.139583 -0.010472 0.000000
vt 0.251250 -0.010472 0.000000
vt 0.139583 -0.005236 0.000000
vt 0.251250 -0.005236 0.000000
vt 0.139583 -0.000000 0.000000
vt 0.251250 -0.000000 0.000000
vt 0.139583 0.005236 0.000000
vt 0.251250 0.005236 0.000000
vt 0.139583 0.010472 0.000000
vt 0.251250 0.010472 0.000000
vt 0.251250 0.015708 0.000000
vt -0.642083 0.005236 0.000000
vt -0.753750 0.005236 0.000000
vt -0.642083 -0.000000 0.000000
vt -0.753750 -0.000000 0.000000
vt -0.642083 -0.005236 0.000000
vt -0.753750 -0.005236 0.000000
vt -0.642083 -0.010472 0.000000
vt -0.753750 -0.010472 0.000000
vt -0.753750 -0.015708 0.000000
vt -0.307083 -0.010472 0.000000
vt -0.418750 -0.010472 0.000000
vt -0.530417 -0.010472 0.000000
vt -0.530417 -0.005236 0.000000
vt -0.195417 0.010472 0.000000
vt -0.083750 0.010472 0.000000
vt 0.027917 0.010472 0.000000
vt 0.027917 0.005236 0.000000
vt -0.530417 0.005236 0.000000
vt -0.530417 -0.000000 0.000000
vt -0.307083 0.010472 0.000000
vt -0.195417 0.005236 0.000000
vt -0.083750 0.005236 0.000000
vt -0.083750 -0.000000 0.000000
vt -0.418750 -0.000000 0.000000
vt -0.307083 -0.005236 0.000000
vt -0.195417 -0.010472 0.000000
vt 0.027917 -0.000000 0.000000
vt -0.418750 -0.005236 0.000000
vt 0.027917 -0.005236 0.000000
vt 0.000681 -0.035176 0.000000
vt 0.002679 -0.040000 0.000000
vt -0.000000 -0.030000 0.000000
vt 0.005858 -0.044142 0.000000
vt 0.010000 -0.047321 0.000000
vt 0.014824 -0.049319 0.000000
vt 0.020000 -0.050000 0.000000
vt 0.020000 0.050000 0.000000
vt 0.028907 -0.050000 0.000000
vt 0.028907 0.050000 0.000000
vt 0.048907 -0.030000 0.000000
vt 0.034084 0.049319 0.000000
vt 0.048907 0.030000 0.000000
vt 0.038907 0.047321 0.000000
vt 0.043049 0.044142 0.000000
vt 0.046228 0.040000 0.000000
vt 0.048226 0.035176 0.000000
vt 0.034084 -0.049319 0.000000
vt 0.038907 -0.047321 0.000000
vt 0.043049 -0.044142 0.000000
vt 0.046228 -0.040000 0.000000
vt 0.048226 -0.035176 0.000000
vt 0.014824 0.049319 0.000000
vt -0.000000 0.030000 0.000000
vt 0.010000 0.047321 0.000000
vt 0.005858 0.044142 0.000000
vt 0.002679 0.040000 0.000000
vt 0.000681 0.035176 0.000000
vt 0.000000 -0.030000 0.000000
vt 1.005000 -0.030000 0.000000
vt 0.000000 0.030000 0.000000
vt 1.005000 0.030000 0.000000
vn 0.965926 -0.258819 -0.000000
vn 0.965926 -0.258819 -0.000000
vn 1.000000 -0.000000 -0.000000
vn 0.965926 -0.258819 -0.000000
vn 0.965926 -0.258819 -0.000000
vn 0.866025 -0.500000 -0.000000
vn 0.866025 -0.500000 -0.000000
vn 0.707107 -0.707107 -0.000000
vn 0.707107 -0.707107 -0.000000
vn 0.500000 -0.866025 -0.000000
vn 0.500000 -0.866025 -0.000000
vn 0.258819 -0.965926 -0.000000
vn 0.258819 -0.965926 -0.000000
vn -0.000000 -1.000000 0.000000
vn 0.258819 -0.965926 -0.000000
vn 0.258819 -0.965926 -0.000000
vn 0.500000 -0.866025 -0.000000
vn 0.500000 -0.866025 -0.000000
vn 0.707107 -0.707107 -0.000000
vn 0.707107 -0.707107 -0.000000
vn 0.866025 -0.500000 -0.000000
vn 0.866025 -0.500000 -0.000000
vn 0.965926 -0.258819 -0.000000
vn 0.965926 -0.258819 -0.000000
vn 1.000000 -0.000000 -0.000000
vn 0.866025 -0.500000 -0.000000
vn 0.866025 -0.500000 -0.000000
vn 0.707107 -0.707107 -0.000000
vn 0.707107 -0.707107 -0.000000
vn 0.500000 -0.866025 -0.000000
vn 0.500000 -0.866025 -0.000000
vn 0.258819 -0.965926 -0.000000
vn 0.258819 -0.965926 -0.000000
vn -0.000000 -1.000000 -0.000000
vn 0.258819 -0.965926 -0.000000
vn 0.258819 -0.965926 -0.000000
vn 0.258819 -0.965926 -0.000000
vn 0.500000 -0.866025 -0.000000
vn 0.965926 -0.258819 -0.000000
vn 0.965926 -0.258819 -0.000000
vn 0.965926 -0.258819 -0.000000
vn 0.866025 -0.500000 -0.000000
vn 0.866025 -0.500000 -0.000000
vn 0.707107 -0.707107 -0.000000
vn 0.965926 -0.258819 -0.000000
vn 0.866025 -0.500000 -0.000000
vn 0.866025 -0.500000 -0.000000
vn 0.707107 -0.707107 -0.000000
vn 0.707107 -0.707107 -0.000000
vn 0.500000 -0.866025 -0.000000
vn 0.258819 -0.965926 -0.000000
vn 0.707107 -0.707107 -0.000000
vn 0.500000 -0.866025 -0.000000
vn 0.500000 -0.866025 -0.000000
vn 0.000000 -1.000000 0.000000
vn 0.000000 -1.000000 0.000000
vn 0.000000 0.000000 1.000000
vn 0.000000 0.000000 1.000000
vn 0.000000 0.000000 1.000000
vn 0.000000 0.000000 1.000000
vn 0.000000 0.000000 1.000000
vn 0.000000 0.000000 1.000000
vn 0.000000 0.000000 1.000000
vn 0.000000 0.000000 1.000000
vn 0.000000 0.000000 1.000000
vn 0.000000 0.000000 1.000000
vn 0.000000 0.000000 1.000000
vn 0.000000 0.000000 1.000000
vn 0.000000 0.000000 1.000000
vn 0.000000 0.000000 1.000000
vn 0.000000 0.000000 1.000000
vn 0.000000 0.000000 1.000000
vn 0.000000 0.000000 1.000000
vn 0.000000 0.000000 1.000000
vn 0.000000 0.000000 1.000000
vn 0.000000 0.000000 1.000000
vn 0.000000 0.000000 1.000000
vn 0.000000 0.000000 1.000000
vn 0.000000 0.000000 1.000000
vn 0.000000 0.000000 1.000000
vn 0.000000 0.000000 1.000000
vn 0.000000 0.000000 1.000000
vn 0.000000 0.000000 1.000000
vn 0.000000 0.000000 1.000000
vn -0.965926 -0.258819 0.000000
vn -0.965926 -0.258819 0.000000
vn -1.000000 -0.000000 0.000000
vn -0.965926 -0.258819 0.000000
vn -0.965926 -0.258819 0.000000
vn -0.866025 -0.500000 0.000000
vn -0.866025 -0.500000 0.000000
vn -0.707107 -0.707107 0.000000
vn -0.707107 -0.707107 0.000000
vn -0.500000 -0.866025 0.000000
vn -0.500000 -0.866025 0.000000
vn -0.258819 -0.965926 0.000000
vn -0.258819 -0.965926 0.000000
vn -0.258819 -0.965926 0.000000
vn -0.258819 -0.965926 0.000000
vn -0.500000 -0.866025 0.000000
vn -0.500000 -0.866025 0.000000
vn -0.707107 -0.707107 0.000000
vn -0.707107 -0.707107 0.000000
vn -0.866025 -0.500000 0.000000
vn -0.866025 -0.500000 0.000000
vn -0.965926 -0.258819 0.000000
vn -0.965926 -0.258819 0.000000
vn -1.000000 -0.000000 0.000000
vn -0.866025 -0.500000 0.000000
vn -0.866025 -0.500000 0.000000
vn -0.707107 -0.707107 0.000000
vn -0.707107 -0.707107 0.000000
vn -0.500000 -0.866025 0.000000
vn -0.500000 -0.866025 0.000000
vn -0.258819 -0.965926 0.000000
vn -0.258819 -0.965926 0.000000
vn -0.258819 -0.965926 0.000000
vn -0.258819 -0.965926 0.000000
vn -0.258819 -0.965926 0.000000
vn -0.500000 -0.866025 0.000000
vn -0.965926 -0.258819 0.000000
vn -0.965926 -0.258819 0.000000
vn -0.965926 -0.258819 0.000000
vn -0.866025 -0.500000 0.000000
vn -0.866025 -0.500000 0.000000
vn -0.707107 -0.707107 0.000000
vn -0.965926 -0.258819 0.000000
vn -0.866025 -0.500000 0.000000
vn -0.866025 -0.500000 0.000000
vn -0.707107 -0.707107 0.000000
vn -0.707107 -0.707107 0.000000
vn -0.500000 -0.866025 0.000000
vn -0.258819 -0.965926 0.000000
vn -0.707107 -0.707107 0.000000
vn -0.500000 -0.866025 0.000000
vn -0.500000 -0.866025 0.000000
vn -1.000000 0.000000 0.000000
vn -1.000000 0.000000 0.000000
vn 0.965926 0.258819 0.000000
vn 0.965926 0.258819 0.000000
vn 1.000000 0.000000 0.000000
vn 0.965926 0.258819 0.000000
vn 0.965926 0.258819 0.000000
vn 0.866025 0.500000 0.000000
vn 0.866025 0.500000 0.000000
vn 0.707107 0.707107 0.000000
vn 0.707107 0.707107 0.000000
vn 0.500000 0.866025 0.000000
vn 0.500000 0.866025 0.000000
vn 0.258819 0.965926 0.000000
vn 0.258819 0.965926 0.000000
vn -0.000000 1.000000 -0.000000
vn 0.258819 0.965926 0.000000
vn 0.258819 0.965926 0.000000
vn 0.500000 0.866025 0.000000
vn 0.500000 0.866025 0.000000
vn 0.707107 0.707107 0.000000
vn 0.707107 0.707107 0.000000
vn 0.866025 0.500000 0.000000
vn 0.866025 0.500000 0.000000
vn 0.965926 0.258819 0.000000
vn 0.965926 0.258819 0.000000
vn 1.000000 0.000000 0.000000
vn 0.866025 0.500000 0.000000
vn 0.866025 0.500000 0.000000
vn 0.707107 0.707107 0.000000
vn 0.707107 0.707107 0.000000
vn 0.500000 0.866025 0.000000
vn 0.500000 0.866025 0.000000
vn 0.258819 0.965926 0.000000
vn 0.258819 0.965926 0.000000
vn -0.000000 1.000000 -0.000000
vn 0.258819 0.965926 0.000000
vn 0.258819 0.965926 0.000000
vn 0.258819 0.965926 0.000000
vn 0.500000 0.866025 0.000000
vn 0.965926 0.258819 0.000000
vn 0.965926 0.258819 0.000000
vn 0.965926 0.258819 0.000000
vn 0.866025 0.500000 0.000000
vn 0.866025 0.500000 0.000000
vn 0.707107 0.707107 0.000000
vn 0.965926 0.258819 0.000000
vn 0.866025 0.500000 0.000000
vn 0.866025 0.500000 0.000000
vn 0.707107 0.707107 0.000000
vn 0.707107 0.707107 0.000000
vn 0.500000 0.866025 0.000000
vn 0.258819 0.965926 0.000000
vn 0.707107 0.707107 0.000000
vn 0.500000 0.866025 0.000000
vn 0.500000 0.866025 0.000000
vn 0.000000 1.000000 0.000000
vn 0.000000 1.000000 0.000000
vn -0.965926 0.258819 -0.000000
vn -0.965926 0.258819 -0.000000
vn -0.965926 0.258819 -0.000000
vn -0.965926 0.258819 -0.000000
vn -0.866025 0.500000 -0.000000
vn -0.866025 0.500000 -0.000000
vn -0.707107 0.707107 -0.000000
vn -0.707107 0.707107 -0.000000
vn -0.500000 0.866025 -0.000000
vn -0.500000 0.866025 -0.000000
vn -0.258819 0.965926 -0.000000
vn -0.258819 0.965926 -0.000000
vn -0.258819 0.965926 -0.000000
vn -0.258819 0.965926 -0.000000
vn -0.500000 0.866025 -0.000000
vn -0.500000 0.866025 -0.000000
vn -0.707107 0.707107 -0.000000
vn -0.707107 0.707107 -0.000000
vn -0.866025 0.500000 -0.000000
vn -0.866025 0.500000 -0.000000
vn -0.965926 0.258819 -0.000000
vn -0.965926 0.258819 -0.000000
vn -0.866025 0.500000 -0.000000
vn -0.866025 0.500000 -0.000000
vn -0.707107 0.707107 -0.000000
vn -0.707107 0.707107 -0.000000
vn -0.500000 0.866025 -0.000000
vn -0.500000 0.866025 -0.000000
vn -0.258819 0.965926 -0.000000
vn -0.258819 0.965926 -0.000000
vn -0.258819 0.965926 -0.000000
vn -0.258819 0.965926 -0.000000
vn -0.258819 0.965926 -0.000000
vn -0.500000 0.866025 -0.000000
vn -0.965926 0.258819 -0.000000
vn -0.965926 0.258819 -0.000000
vn -0.965926 0.258819 -0.000000
vn -0.866025 0.500000 -0.000000
vn -0.866025 0.500000 -0.000000
vn -0.707107 0.707107 -0.000000
vn -0.965926 0.258819 -0.000000
vn -0.866025 0.500000 -0.000000
vn -0.866025 0.500000 -0.000000
vn -0.707107 0.707107 -0.000000
vn -0.707107 0.707107 -0.000000
vn -0.500000 0.866025 -0.000000
vn -0.258819 0.965926 -0.000000
vn -0.707107 0.707107 -0.000000
vn -0.500000 0.866025 -0.000000
vn -0.500000 0.866025 -0.000000
vn 0.000000 0.000000 -1.000000
vn 0.000000 0.000000 -1.000000
vn 0.000000 0.000000 -1.000000
vn 0.000000 0.000000 -1.000000
vn 0.000000 0.000000 -1.000000
vn 0.000000 0.000000 -1.000000
vn 0.000000 0.000000 -1.000000
vn 0.000000 0.000000 -1.000000
vn 0.000000 0.000000 -1.000000
vn 0.000000 0.000000 -1.000000
vn 0.000000 0.000000 -1.000000
vn 0.000000 0.000000 -1.000000
vn 0.000000 0.000000 -1.000000
vn 0.000000 0.000000 -1.000000
vn 0.000000 0.000000 -1.000000
vn 0.000000 0.000000 -1.000000
vn 0.000000 0.000000 -1.000000
vn 0.000000 0.000000 -1.000000
vn 0.000000 0.000000 -1.000000
vn 0.000000 0.000000 -1.000000
vn 0.000000 0.000000 -1.000000
vn 0.000000 0.000000 -1.000000
vn 0.000000 0.000000 -1.000000
vn 0.000000 0.000000 -1.000000
vn 0.000000 0.000000 -1.000000
vn 0.000000 0.000000 -1.000000
vn 0.000000 0.000000 -1.000000
vn 0.000000 0.000000 -1.000000
usemtl Mahogany
f 135/271/251 148/272/252 134/273/253
f 134/273/253 148/272/252 149/274/254
f 134/273/253 149/274/254 150/275/255
f 150/275/255 149/274/254 158/276/256
f 150/275/255 158/276/256 159/277/257
f 159/277/257 158/276/256 167/278/258
f 159/277/257 167/278/258 168/279/259
f 168/279/259 167/278/258 176/280/260
f 168/279/259 176/280/260 177/281/261
f 177/281/261 176/280/260 185/282/262
f 177/281/261 185/282/262 186/283/263
f 186/283/263 185/282/262 141/284/264
f 186/283/263 141/284/264 187/285/265
f 187/285/265 141/284/264 142/286/266
f 187/285/265 142/286/266 179/287/267
f 179/287/267 142/286/266 143/288/268
f 179/287/267 143/288/268 171/289/269
f 171/289/269 143/288/268 144/290/270
f 171/289/269 144/290/270 163/291/271
f 163/291/271 144/290/270 145/292/272
f 163/291/271 145/292/272 155/293/273
f 155/293/273 145/292/272 146/294/274
f 155/293/273 146/294/274 147/295/275
f 148/272/252 135/271/251 156/296/276
f 156/296/276 135/271/251 136/297/277
f 156/296/276 136/297/277 164/298/278
f 164/298/278 136/297/277 137/299/279
f 164/298/278 137/299/279 172/300/280
f 172/300/280 137/299/279 138/301/281
f 172/300/280 138/301/281 180/302/282
f 180/302/282 138/301/281 139/303/283
f 180/302/282 139/303/283 140/304/284
f 141/284/264 183/305/285 140/304/284
f 140/304/284 183/305/285 182/306/286
f 140/304/284 182/306/286 181/307/287
f 181/307/287 182/306/286 173/308/288
f 181/307/287 173/308/288 172/300/280
f 172/300/280 173/308/288 164/298/278
f 134/273/253 152/309/289 147/295/275
f 147/295/275 152/309/289 153/310/290
f 147/295/275 153/310/290 154/311/291
f 154/311/291 153/310/290 162/312/292
f 154/311/291 162/312/292 163/291/271
f 163/291/271 162/312/292 171/289/269
f 149/274/254 148/272/252 157/313/293
f 157/313/293 148/272/252 156/296/276
f 157/313/293 156/296/276 165/314/294
f 165/314/294 156/296/276 164/298/278
f 165/314/294 164/298/278 173/308/288
f 152/309/289 134/273/253 151/315/295
f 151/315/295 134/273/253 150/275/255
f 151/315/295 150/275/255 159/277/257
f 152/309/289 151/315/295 160/316/296
f 160/316/296 151/315/295 159/277/257
f 160/316/296 159/277/257 168/279/259
f 155/293/273 147/295/275 154/311/291
f 153/310/290 152/309/289 161/317/297
f 161/317/297 152/309/289 160/316/296
f 161/317/297 160/316/296 169/318/298
f 169/318/298 160/316/296 168/279/259
f 169/318/298 168/279/259 177/281/261
f 163/291/271 155/293/273 154/311/291
f 149/274/254 157/313/293 158/276/256
f 158/276/256 157/313/293 166/319/299
f 158/276/256 166/319/299 167/278/258
f 167/278/258 166/319/299 175/320/300
f 167/278/258 175/320/300 176/280/260
f 176/280/260 175/320/300 184/321/301
f 176/280/260 184/321/301 185/282/262
f 185/282/262 184/321/301 141/284/264
f 166/319/299 157/313/293 165/314/294
f 153/310/290 161/317/297 162/312/292
f 162/312/292 161/317/297 170/322/302
f 162/312/292 170/322/302 171/289/269
f 171/289/269 170/322/302 179/287/267
f 170/322/302 161/317/297 169/318/298
f 166/319/299 165/314/294 174/323/303
f 174/323/303 165/314/294 173/308/288
f 174/323/303 173/308/288 182/306/286
f 170/322/302 169/318/298 178/324/304
f 178/324/304 169/318/298 177/281/261
f 178/324/304 177/281/261 186/283/263
f 181/307/287 172/300/280 180/302/282
f 166/319/299 174/323/303 175/320/300
f 175/320/300 174/323/303 183/305/285
f 175/320/300 183/305/285 184/321/301
f 184/321/301 183/305/285 141/284/264
f 183/305/285 174/323/303 182/306/286
f 187/285/265 179/287/267 178/324/304
f 178/324/304 179/287/267 170/322/302
f 187/285/265 178/324/304 186/283/263
f 140/304/284 181/307/287 180/302/282
f 141/325/264 140/326/284 189/327/305
f 189/327/305 140/326/284 188/328/306
f 139/329/307 134/330/308 140/331/309
f 140/331/309 134/330/308 196/332/310
f 140/331/309 196/332/310 197/333/311
f 139/329/307 138/334/312 134/330/308
f 134/330/308 138/334/312 137/335/313
f 134/330/308 137/335/313 136/336/314
f 136/336/314 135/337/315 134/330/308
f 196/332/310 134/330/308 195/338/316
f 195/338/316 134/330/308 190/339/317
f 195/338/316 190/339/317 194/340/318
f 194/340/318 190/339/317 193/341/319
f 193/341/319 190/339/317 192/342/320
f 192/342/320 190/339/317 191/343/321
f 198/344/322 204/345/323 197/333/311
f 197/333/311 204/345/323 188/346/324
f 197/333/311 188/346/324 140/331/309
f 204/345/323 198/344/322 203/347/325
f 203/347/325 198/344/322 199/348/326
f 203/347/325 199/348/326 200/349/327
f 200/349/327 201/350/328 203/347/325
f 203/347/325 201/350/328 202/351/329
f 205/352/330 206/353/331 204/345/323
f 204/345/323 206/353/331 207/354/332
f 204/345/323 207/354/332 208/355/333
f 208/355/333 209/356/334 204/345/323
f 204/345/323 209/356/334 188/346/324
f 211/357/335 216/358/336 210/359/337
f 210/359/337 216/358/336 217/360/338
f 210/359/337 217/360/338 218/361/339
f 218/361/339 217/360/338 226/362/340
f 218/361/339 226/362/340 227/363/341
f 227/363/341 226/362/340 235/364/342
f 227/363/341 235/364/342 236/365/343
f 236/365/343 235/364/342 244/366/344
f 236/365/343 244/366/344 245/367/345
f 245/367/345 244/366/344 253/368/346
f 245/367/345 253/368/346 254/369/347
f 254/369/347 253/368/346 188/370/306
f 254/369/347 188/370/306 255/371/348
f 255/371/348 188/370/306 209/372/349
f 255/371/348 209/372/349 247/373/350
f 247/373/350 209/372/349 208/374/351
f 247/373/350 208/374/351 239/375/352
f 239/375/352 208/374/351 207/376/353
f 239/375/352 207/376/353 231/377/354
f 231/377/354 207/376/353 206/378/355
f 231/377/354 206/378/355 223/379/356
f 223/379/356 206/378/355 205/380/357
f 223/379/356 205/380/357 204/381/358
f 216/358/336 211/357/335 224/382/359
f 224/382/359 211/357/335 212/383/360
f 224/382/359 212/383/360 232/384/361
f 232/384/361 212/383/360 213/385/362
f 232/384/361 213/385/362 240/386/363
f 240/386/363 213/385/362 214/387/364
f 240/386/363 214/387/364 248/388/365
f 248/388/365 214/387/364 215/389/366
f 248/388/365 215/389/366 189/390/305
f 188/370/306 251/391/367 189/390/305
f 189/390/305 251/391/367 250/392/368
f 189/390/305 250/392/368 249/393/369
f 249/393/369 250/392/368 241/394/370
f 249/393/369 241/394/370 240/386/363
f 240/386/363 241/394/370 232/384/361
f 210/359/337 220/395/371 204/381/358
f 204/381/358 220/395/371 221/396/372
f 204/381/358 221/396/372 222/397/373
f 222/397/373 221/396/372 230/398/374
f 222/397/373 230/398/374 231/377/354
f 231/377/354 230/398/374 239/375/352
f 217/360/338 216/358/336 225/399/375
f 225/399/375 216/358/336 224/382/359
f 225/399/375 224/382/359 233/400/376
f 233/400/376 224/382/359 232/384/361
f 233/400/376 232/384/361 241/394/370
f 220/395/371 210/359/337 219/401/377
f 219/401/377 210/359/337 218/361/339
f 219/401/377 218/361/339 227/363/341
f 220/395/371 219/401/377 228/402/378
f 228/402/378 219/401/377 227/363/341
f 228/402/378 227/363/341 236/365/343
f 223/379/356 204/381/358 222/397/373
f 221/396/372 220/395/371 229/403/379
f 229/403/379 220/395/371 228/402/378
f 229/403/379 228/402/378 237/404/380
f 237/404/380 228/402/378 236/365/343
f 237/404/380 236/365/343 245/367/345
f 231/377/354 223/379/356 222/397/373
f 217/360/338 225/399/375 226/362/340
f 226/362/340 225/399/375 234/405/381
f 226/362/340 234/405/381 235/364/342
f 235/364/342 234/405/381 243/406/382
f 235/364/342 243/406/382 244/366/344
f 244/366/344 243/406/382 252/407/383
f 244/366/344 252/407/383 253/368/346
f 253/368/346 252/407/383 188/370/306
f 234/405/381 225/399/375 233/400/376
f 221/396/372 229/403/379 230/398/374
f 230/398/374 229/403/379 238/408/384
f 230/398/374 238/408/384 239/375/352
f 239/375/352 238/408/384 247/373/350
f 238/408/384 229/403/379 237/404/380
f 234/405/381 233/400/376 242/409/385
f 242/409/385 233/400/376 241/394/370
f 242/409/385 241/394/370 250/392/368
f 238/408/384 237/404/380 246/410/386
f 246/410/386 237/404/380 245/367/345
f 246/410/386 245/367/345 254/369/347
f 249/393/369 240/386/363 248/388/365
f 234/405/381 242/409/385 243/406/382
f 243/406/382 242/409/385 251/391/367
f 243/406/382 251/391/367 252/407/383
f 252/407/383 251/391/367 188/370/306
f 251/391/367 242/409/385 250/392/368
f 255/371/348 247/373/350 246/410/386
f 246/410/386 247/373/350 238/408/384
f 255/371/348 246/410/386 254/369/347
f 189/390/305 249/393/369 248/388/365
f 210/411/337 204/412/358 256/413/387
f 256/413/387 204/412/358 203/414/388
f 258/415/389 264/416/390 257/417/391
f 257/417/391 264/416/390 265/418/392
f 257/417/391 265/418/392 266/419/393
f 266/419/393 265/418/392 274/420/394
f 266/419/393 274/420/394 275/421/395
f 275/421/395 274/420/394 283/422/396
f 275/421/395 283/422/396 284/423/397
f 284/423/397 283/422/396 292/424/398
f 284/423/397 292/424/398 293/425/399
f 293/425/399 292/424/398 301/426/400
f 293/425/399 301/426/400 302/427/401
f 302/427/401 301/426/400 196/428/402
f 302/427/401 196/428/402 303/429/403
f 303/429/403 196/428/402 195/430/404
f 303/429/403 195/430/404 295/431/405
f 295/431/405 195/430/404 194/432/406
f 295/431/405 194/432/406 287/433/407
f 287/433/407 194/432/406 193/434/408
f 287/433/407 193/434/408 279/435/409
f 279/435/409 193/434/408 192/436/410
f 279/435/409 192/436/410 271/437/411
f 271/437/411 192/436/410 191/438/412
f 271/437/411 191/438/412 190/439/413
f 264/416/390 258/415/389 272/440/414
f 272/440/414 258/415/389 259/441/415
f 272/440/414 259/441/415 280/442/416
f 280/442/416 259/441/415 260/443/417
f 280/442/416 260/443/417 288/444/418
f 288/444/418 260/443/417 261/445/419
f 288/444/418 261/445/419 296/446/420
f 296/446/420 261/445/419 262/447/421
f 296/446/420 262/447/421 263/448/422
f 196/428/402 299/449/423 263/448/422
f 263/448/422 299/449/423 298/450/424
f 263/448/422 298/450/424 297/451/425
f 297/451/425 298/450/424 289/452/426
f 297/451/425 289/452/426 288/444/418
f 288/444/418 289/452/426 280/442/416
f 257/417/391 268/453/427 190/439/413
f 190/439/413 268/453/427 269/454/428
f 190/439/413 269/454/428 270/455/429
f 270/455/429 269/454/428 278/456/430
f 270/455/429 278/456/430 279/435/409
f 279/435/409 278/456/430 287/433/407
f 265/418/392 264/416/390 273/457/431
f 273/457/431 264/416/390 272/440/414
f 273/457/431 272/440/414 281/458/432
f 281/458/432 272/440/414 280/442/416
f 281/458/432 280/442/416 289/452/426
f 268/453/427 257/417/391 267/459/433
f 267/459/433 257/417/391 266/419/393
f 267/459/433 266/419/393 275/421/395
f 268/453/427 267/459/433 276/460/434
f 276/460/434 267/459/433 275/421/395
f 276/460/434 275/421/395 284/423/397
f 271/437/411 190/439/413 270/455/429
f 269/454/428 268/453/427 277/461/435
f 277/461/435 268/453/427 276/460/434
f 277/461/435 276/460/434 285/462/436
f 285/462/436 276/460/434 284/423/397
f 285/462/436 284/423/397 293/425/399
f 279/435/409 271/437/411 270/455/429
f 265/418/392 273/457/431 274/420/394
f 274/420/394 273/457/431 282/463/437
f 274/420/394 282/463/437 283/422/396
f 283/422/396 282/463/437 291/464/438
f 283/422/396 291/464/438 292/424/398
f 292/424/398 291/464/438 300/465/439
f 292/424/398 300/465/439 301/426/400
f 301/426/400 300/465/439 196/428/402
f 282/463/437 273/457/431 281/458/432
f 269/454/428 277/461/435 278/456/430
f 278/456/430 277/461/435 286/466/440
f 278/456/430 286/466/440 287/433/407
f 287/433/407 286/466/440 295/431/405
f 286/466/440 277/461/435 285/462/436
f 282/463/437 281/458/432 290/467/441
f 290/467/441 281/458/432 289/452/426
f 290/467/441 289/452/426 298/450/424
f 286/466/440 285/462/436 294/468/442
f 294/468/442 285/462/436 293/425/399
f 294/468/442 293/425/399 302/427/401
f 297/451/425 288/444/418 296/446/420
f 282/463/437 290/467/441 291/464/438
f 291/464/438 290/467/441 299/449/423
f 291/464/438 299/449/423 300/465/439
f 300/465/439 299/449/423 196/428/402
f 299/449/423 290/467/441 298/450/424
f 303/429/403 295/431/405 294/468/442
f 294/468/442 295/431/405 286/466/440
f 303/429/403 294/468/442 302/427/401
f 263/448/422 297/451/425 296/446/420
f 196/469/402 263/470/422 197/471/443
f 197/471/443 263/470/422 304/472/444
f 202/473/445 310/474/446 203/475/388
f 203/475/388 310/474/446 311/476/447
f 203/475/388 311/476/447 312/477/448
f 312/477/448 311/476/447 320/478/449
f 312/477/448 320/478/449 321/479/450
f 321/479/450 320/478/449 329/480/451
f 321/479/450 329/480/451 330/481/452
f 330/481/452 329/480/451 338/482/453
f 330/481/452 338/482/453 339/483/454
f 339/483/454 338/482/453 347/484/455
f 339/483/454 347/484/455 348/485/456
f 348/485/456 347/484/455 304/486/444
f 348/485/456 304/486/444 349/487/457
f 349/487/457 304/486/444 305/488/458
f 349/487/457 305/488/458 341/489/459
f 341/489/459 305/488/458 306/490/460
f 341/489/459 306/490/460 333/491/461
f 333/491/461 306/490/460 307/492/462
f 333/491/461 307/492/462 325/493/463
f 325/493/463 307/492/462 308/494/464
f 325/493/463 308/494/464 317/495/465
f 317/495/465 308/494/464 309/496/466
f 317/495/465 309/496/466 256/497/387
f 310/474/446 202/473/445 318/498/467
f 318/498/467 202/473/445 201/499/468
f 318/498/467 201/499/468 326/500/469
f 326/500/469 201/499/468 200/501/470
f 326/500/469 200/501/470 334/502/471
f 334/502/471 200/501/470 199/503/472
f 334/502/471 199/503/472 342/504/473
f 342/504/473 199/503/472 198/505/474
f 342/504/473 198/505/474 197/506/443
f 304/486/444 345/507/475 197/506/443
f 197/506/443 345/507/475 344/508/476
f 197/506/443 344/508/476 343/509/477
f 343/509/477 344/508/476 335/510/478
f 343/509/477 335/510/478 334/502/471
f 334/502/471 335/510/478 326/500/469
f 203/475/388 314/511/479 256/497/387
f 256/497/387 314/511/479 315/512/480
f 256/497/387 315/512/480 316/513/481
f 316/513/481 315/512/480 324/514/482
f 316/513/481 324/514/482 325/493/463
f 325/493/463 324/514/482 333/491/461
f 311/476/447 310/474/446 319/515/483
f 319/515/483 310/474/446 318/498/467
f 319/515/483 318/498/467 327/516/484
f 327/516/484 318/498/467 326/500/469
f 327/516/484 326/500/469 335/510/478
f 314/511/479 203/475/388 313/517/485
f 313/517/485 203/475/388 312/477/448
f 313/517/485 312/477/448 321/479/450
f 314/511/479 313/517/485 322/518/486
f 322/518/486 313/517/485 321/479/450
f 322/518/486 321/479/450 330/481/452
f 317/495/465 256/497/387 316/513/481
f 315/512/480 314/511/479 323/519/487
f 323/519/487 314/511/479 322/518/486
f 323/519/487 322/518/486 331/520/488
f 331/520/488 322/518/486 330/481/452
f 331/520/488 330/481/452 339/483/454
f 325/493/463 317/495/465 316/513/481
f 311/476/447 319/515/483 320/478/449
f 320/478/449 319/515/483 328/521/489
f 320/478/449 328/521/489 329/480/451
f 329/480/451 328/521/489 337/522/490
f 329/480/451 337/522/490 338/482/453
f 338/482/453 337/522/490 346/523/491
f 338/482/453 346/523/491 347/484/455
f 347/484/455 346/523/491 304/486/444
f 328/521/489 319/515/483 327/516/484
f 315/512/480 323/519/487 324/514/482
f 324/514/482 323/519/487 332/524/492
f 324/514/482 332/524/492 333/491/461
f 333/491/461 332/524/492 341/489/459
f 332/524/492 323/519/487 331/520/488
f 328/521/489 327/516/484 336/525/493
f 336/525/493 327/516/484 335/510/478
f 336/525/493 335/510/478 344/508/476
f 332/524/492 331/520/488 340/526/494
f 340/526/494 331/520/488 339/483/454
f 340/526/494 339/483/454 348/485/456
f 343/509/477 334/502/471 342/504/473
f 328/521/489 336/525/493 337/522/490
f 337/522/490 336/525/493 345/507/475
f 337/522/490 345/507/475 346/523/491
f 346/523/491 345/507/475 304/486/444
f 345/507/475 336/525/493 344/508/476
f 349/487/457 341/489/459 340/526/494
f 340/526/494 341/489/459 332/524/492
f 349/487/457 340/526/494 348/485/456
f 197/506/443 343/509/477 342/504/473
f 146/527/495 145/528/496 147/529/497
f 147/529/497 145/528/496 144/530/498
f 147/529/497 144/530/498 143/531/499
f 143/531/499 142/532/500 147/529/497
f 147/529/497 142/532/500 141/533/501
f 147/529/497 141/533/501 263/534/502
f 263/534/502 141/533/501 189/535/503
f 263/534/502 189/535/503 304/536/504
f 304/536/504 189/535/503 210/537/505
f 304/536/504 210/537/505 305/538/506
f 305/538/506 210/537/505 256/539/507
f 305/538/506 256/539/507 306/540/508
f 306/540/508 256/539/507 307/541/509
f 307/541/509 256/539/507 308/542/510
f 308/542/510 256/539/507 309/543/511
f 189/535/503 215/544/512 210/537/505
f 210/537/505 215/544/512 214/545/513
f 210/537/505 214/545/513 213/546/514
f 213/546/514 212/547/515 210/537/505
f 210/537/505 212/547/515 211/548/516
f 263/534/502 262/549/517 147/529/497
f 147/529/497 262/549/517 257/550/518
f 257/550/518 262/549/517 261/551/519
f 257/550/518 261/551/519 260/552/520
f 260/552/520 259/553/521 257/550/518
f 257/550/518 259/553/521 258/554/522
f 134/555/253 147/556/275 190/557/413
f 190/557/413 147/556/275 257/558/391
g kite_1

v -0.025000 -0.010000 1.104389
v -0.500000 -0.010000 0.400000
v -0.025000 -0.010000 0.228848
v -0.500000 0.010000 0.400000
v -0.025000 0.010000 0.228848
v -0.025000 0.010000 1.104389
vt -0.437770 0.237500 0.000000
vt 0.266618 -0.237500 0.000000
vt 0.437770 0.237500 0.000000
vt 0.504894 0.010000 0.000000
vt -0.000000 0.010000 0.000000
vt 0.504894 -0.010000 0.000000
vt -0.000000 -0.010000 0.000000
vt 0.875540 0.010000 0.000000
vt -0.000000 0.010000 0.000000
vt 0.875540 -0.010000 0.000000
vt 0.000000 -0.010000 0.000000
vt 0.849581 0.010000 0.000000
vt -0.000000 0.010000 0.000000
vt 0.849581 -0.010000 0.000000
vt -0.000000 -0.010000 0.000000
vt -0.266618 -0.237500 0.000000
vt 0.437770 0.237500 0.000000
vt -0.437770 0.237500 0.000000
vn 0.000000 -1.000000 0.000000
vn 0.000000 -1.000000 0.000000
vn 0.000000 -1.000000 0.000000
vn -0.338985 0.000000 -0.940792
vn -0.338985 0.000000 -0.940792
vn -0.338985 0.000000 -0.940792
vn -0.338985 0.000000 -0.940792
vn 1.000000 0.000000 0.000000
vn 1.000000 0.000000 0.000000
vn 1.000000 0.000000 0.000000
vn 1.000000 0.000000 0.000000
vn -0.829101 0.000000 0.559099
vn -0.829101 0.000000 0.559099
vn -0.829101 0.000000 0.559099
vn -0.829101 0.000000 0.559099
vn 0.000000 1.000000 0.000000
vn 0.000000 1.000000 0.000000
vn 0.000000 1.000000 0.000000
usemtl Paint_-_Enamel_Glossy_(Grey)
f 350/559/523 351/560/524 352/561/525
f 353/562/526 354/563/527 351/564/528
f 351/564/528 354/563/527 352/565/529
f 354/566/530 355/567/531 352/568/532
f 352/568/532 355/567/531 350/569/533
f 355/570/534 353/571/535 350/572/536
f 350/572/536 353/571/535 351/573/537
f 353/574/538 355/575/539 354/576/540
g kite_2

v 0.437729 -0.010000 0.180000
v 0.023907 -0.010000 0.900000
v 0.023907 -0.010000 0.180000
v 0.023907 0.010000 0.900000
v 0.023907 0.010000 0.180000
v 0.437729 0.010000 0.180000
vt 0.360000 0.206911 0.000000
vt -0.360000 -0.206911 0.000000
vt 0.360000 -0.206911 0.000000
vt 0.720000 0.010000 0.000000
vt 0.000000 0.010000 0.000000
vt 0.720000 -0.010000 0.000000
vt 0.000000 -0.010000 0.000000
vt 0.413822 0.010000 0.000000
vt 0.000000 0.010000 0.000000
vt 0.413822 -0.010000 0.000000
vt 0.000000 -0.010000 0.000000
vt 0.830451 0.010000 0.000000
vt 0.000000 0.010000 0.000000
vt 0.830451 -0.010000 0.000000
vt 0.000000 -0.010000 0.000000
vt 0.360000 -0.206911 0.000000
vt -0.360000 0.206911 0.000000
vt -0.360000 -0.206911 0.000000
vn 0.000000 -1.000000 0.000000
vn 0.000000 -1.000000 0.000000
vn 0.000000 -1.000000 0.000000
vn -1.000000 0.000000 0.000000
vn -1.000000 0.000000 0.000000
vn -1.000000 0.000000 0.000000
vn -1.000000 0.000000 0.000000
vn 0.000000 0.000000 -1.000000
vn 0.000000 0.000000 -1.000000
vn 0.000000 0.000000 -1.000000
vn 0.000000 0.000000 -1.000000
vn 0.866999 -0.000000 0.498310
vn 0.866999 -0.000000 0.498310
vn 0.866999 -0.000000 0.498310
vn 0.866999 -0.000000 0.498310
vn 0.000000 1.000000 0.000000
vn 0.000000 1.000000 0.000000
vn 0.000000 1.000000 0.000000
f 356/577/541 357/578/542 358/579/543
f 359/580/544 360/581/545 357/582/546
f 357/582/546 360/581/545 358/583/547
f 360/584/548 361/585/549 358/586/550
f 358/586/550 361/585/549 356/587/551
f 361/588/552 359/589/553 356/590/554
f 356/590/554 359/589/553 357/591/555
f 359/592/556 361/593/557 360/594/558
# 361 vertices
# 594 texture params
# 558 normals
# 702 facets

# 5 groups
