# WaveFront *.obj file (generated by Autodesk ATF)

mtllib SuperTanker.mtl

g hull

v 38000.000000 -7000.000000 13236.233410
v 39286.246625 -6880.811698 13386.934050
v 40528.691663 -6527.305606 13532.502761
v 41685.025140 -5951.519950 13667.982374
v 42715.869506 -5173.062421 13788.759294
v 43586.120591 -4218.442455 13890.720608
v 44266.143039 -3120.168490 13970.394145
v 44732.779502 -1915.640931 14025.066719
v 44970.139234 -645.878516 14052.876521
v 44970.139234 645.878516 14052.876521
v 44732.779502 1915.640931 14025.066719
v 44266.143039 3120.168490 13970.394145
v 43586.120591 4218.442455 13890.720608
v 42715.869506 5173.062421 13788.759294
v 41685.025140 5951.519950 13667.982374
v 40528.691663 6527.305606 13532.502761
v 39286.246625 6880.811698 13386.934050
v 38000.000000 7000.000000 13236.233410
v 14645.945362 7000.000000 10500.000000
v 14645.945362 -7000.000000 10500.000000
v 38000.000000 7000.000000 7000.000000
v -45000.000000 7000.000000 7000.000000
v -45000.000000 7000.000000 10500.000000
v 38000.000000 -7000.000000 7000.000000
v -45000.000000 -7000.000000 10500.000000
v -45000.000000 -7000.000000 7000.000000
v 45000.000000 0.000000 7000.000000
v 44893.654271 0.000000 5784.462756
v 44577.848346 0.000000 4605.858997
v 44062.177826 0.000000 3500.000000
v 43362.311102 0.000000 2500.486732
v 42499.513268 0.000000 1637.688898
v 41500.000000 0.000000 937.822174
v 40394.141003 0.000000 422.151654
v 39215.537244 0.000000 106.345729
v 38000.000000 0.000000 0.000000
v 38000.000000 1215.537244 106.345729
v 38000.000000 2394.141003 422.151654
v 38000.000000 3500.000000 937.822174
v 38000.000000 4499.513268 1637.688898
v 38000.000000 5362.311102 2500.486732
v 38000.000000 6062.177826 3500.000000
v 38000.000000 6577.848346 4605.858997
v 38000.000000 6893.654271 5784.462756
v 39215.537244 6893.654271 7000.000000
v 40394.141003 6577.848346 7000.000000
v 41500.000000 6062.177826 7000.000000
v 42499.513268 5362.311102 7000.000000
v 43362.311102 4499.513268 7000.000000
v 44062.177826 3500.000000 7000.000000
v 44577.848346 2394.141003 7000.000000
v 44893.654271 1215.537244 7000.000000
v 44639.268577 726.969219 4904.378729
v 44908.267464 350.538667 5926.238720
v 44818.170579 1468.112271 6402.340968
v 44521.613139 2541.231513 6896.537628
v 44531.379160 1869.435614 5312.902863
v 44225.714042 2955.293914 5772.513729
v 43731.529023 3951.663407 6269.293921
v 43063.788443 4828.373181 6788.200512
v 44200.329494 1004.578670 3910.220742
v 44063.397257 2165.413358 4252.965473
v 43742.860209 3260.677492 4678.892740
v 43248.424483 4257.205546 5175.105104
v 42595.062012 5124.821806 5726.576832
v 41802.557166 5837.254114 6316.608895
v 40894.907664 6372.929417 6927.334619
v 43605.186691 1174.700599 2974.834082
v 43428.876268 2346.791564 3255.688071
v 43088.174868 3447.819691 3649.923002
v 42593.399217 4444.444912 4145.601105
v 41959.531542 5306.488573 4727.712828
v 41205.765894 6007.847258 5378.631333
v 40354.926935 6527.283234 6078.646258
v 39432.778792 6849.067536 6806.560554
v 42872.481946 1232.006240 2127.518054
v 42647.691422 2407.888888 2352.308578
v 42282.164860 3510.858617 2717.835140
v 41786.970714 4507.516570 3213.029286
v 41177.103882 5367.683098 3822.896118
v 40471.031651 6065.311629 4528.968349
v 39690.134485 6579.277380 5309.865515
v 38858.058614 6894.017031 6141.941386
v 42025.165918 1174.700599 1394.813309
v 41744.311929 2346.791564 1571.123732
v 41350.076998 3447.819691 1911.825132
v 40854.398895 4444.444912 2406.600783
v 40272.287172 5306.488573 3040.468458
v 39621.368667 6007.847258 3794.234106
v 38921.353742 6527.283234 4645.073065
v 38193.439446 6849.067536 5567.221208
v 41089.779258 1004.578670 799.670506
v 40747.034527 2165.413358 936.602743
v 40321.107260 3260.677492 1257.139791
v 39824.894896 4257.205546 1751.575517
v 39273.423168 5124.821806 2404.937988
v 38683.391105 5837.254114 3197.442834
v 38072.665381 6372.929417 4105.092336
v 40095.621271 726.969219 360.731423
v 39687.097137 1869.435614 468.620840
v 39227.486271 2955.293914 774.285958
v 38730.706079 3951.663407 1268.470977
v 38211.799488 4828.373181 1936.211557
v 38103.462372 2541.231513 478.386861
v 38597.659032 1468.112271 181.829421
v 39073.761280 350.538667 91.732536
v 44893.654271 -1215.537244 7000.000000
v 44577.848346 -2394.141003 7000.000000
v 44062.177826 -3500.000000 7000.000000
v 43362.311102 -4499.513268 7000.000000
v 42499.513268 -5362.311102 7000.000000
v 41500.000000 -6062.177826 7000.000000
v 40394.141003 -6577.848346 7000.000000
v 39215.537244 -6893.654271 7000.000000
v 38000.000000 -6893.654271 5784.462756
v 38000.000000 -6577.848346 4605.858997
v 38000.000000 -6062.177826 3500.000000
v 38000.000000 -5362.311102 2500.486732
v 38000.000000 -4499.513268 1637.688898
v 38000.000000 -3500.000000 937.822174
v 38000.000000 -2394.141003 422.151654
v 38000.000000 -1215.537244 106.345729
v 39073.761280 -350.538667 91.732536
v 38597.659032 -1468.112271 181.829421
v 38103.462372 -2541.231513 478.386861
v 40095.621271 -726.969219 360.731423
v 39687.097137 -1869.435614 468.620840
v 39227.486271 -2955.293914 774.285958
v 38730.706079 -3951.663407 1268.470977
v 38211.799488 -4828.373181 1936.211557
v 41089.779258 -1004.578670 799.670506
v 40747.034527 -2165.413358 936.602743
v 40321.107260 -3260.677492 1257.139791
v 39824.894896 -4257.205546 1751.575517
v 39273.423168 -5124.821806 2404.937988
v 38683.391105 -5837.254114 3197.442834
v 38072.665381 -6372.929417 4105.092336
v 42025.165918 -1174.700599 1394.813309
v 41744.311929 -2346.791564 1571.123732
v 41350.076998 -3447.819691 1911.825132
v 40854.398895 -4444.444912 2406.600783
v 40272.287172 -5306.488573 3040.468458
v 39621.368667 -6007.847258 3794.234106
v 38921.353742 -6527.283234 4645.073065
v 38193.439446 -6849.067536 5567.221208
v 42872.481946 -1232.006240 2127.518054
v 42647.691422 -2407.888888 2352.308578
v 42282.164860 -3510.858617 2717.835140
v 41786.970714 -4507.516570 3213.029286
v 41177.103882 -5367.683098 3822.896118
v 40471.031651 -6065.311629 4528.968349
v 39690.134485 -6579.277380 5309.865515
v 38858.058614 -6894.017031 6141.941386
v 43605.186691 -1174.700599 2974.834082
v 43428.876268 -2346.791564 3255.688071
v 43088.174868 -3447.819691 3649.923002
v 42593.399217 -4444.444912 4145.601105
v 41959.531542 -5306.488573 4727.712828
v 41205.765894 -6007.847258 5378.631333
v 40354.926935 -6527.283234 6078.646258
v 39432.778792 -6849.067536 6806.560554
v 44200.329494 -1004.578670 3910.220742
v 44063.397257 -2165.413358 4252.965473
v 43742.860209 -3260.677492 4678.892740
v 43248.424483 -4257.205546 5175.105104
v 42595.062012 -5124.821806 5726.576832
v 41802.557166 -5837.254114 6316.608895
v 40894.907664 -6372.929417 6927.334619
v 44639.268577 -726.969219 4904.378729
v 44531.379160 -1869.435614 5312.902863
v 44225.714042 -2955.293914 5772.513729
v 43731.529023 -3951.663407 6269.293921
v 43063.788443 -4828.373181 6788.200512
v 44521.613139 -2541.231513 6896.537628
v 44818.170579 -1468.112271 6402.340968
v 44908.267464 -350.538667 5926.238720
v -45000.000000 -6880.811698 5713.753375
v -45000.000000 -6527.305606 4471.308337
v -45000.000000 -5951.519950 3314.974860
v -45000.000000 -5173.062421 2284.130494
v -45000.000000 -4218.442455 1413.879409
v -45000.000000 -3120.168490 733.856961
v -45000.000000 -1915.640931 267.220498
v -45000.000000 -645.878516 29.860766
v -45000.000000 645.878516 29.860766
v -45000.000000 1915.640931 267.220498
v -45000.000000 3120.168490 733.856961
v -45000.000000 4218.442455 1413.879409
v -45000.000000 5173.062421 2284.130494
v -45000.000000 5951.519950 3314.974860
v -45000.000000 6527.305606 4471.308337
v -45000.000000 6880.811698 5713.753375
v -17333.333333 -6880.811698 5713.753375
v 10333.333333 -6880.811698 5713.753375
v -17333.333333 -6527.305606 4471.308337
v 10333.333333 -6527.305606 4471.308337
v -17333.333333 -5951.519950 3314.974860
v 10333.333333 -5951.519950 3314.974860
v -17333.333333 -5173.062421 2284.130494
v 10333.333333 -5173.062421 2284.130494
v -17333.333333 -4218.442455 1413.879409
v 10333.333333 -4218.442455 1413.879409
v -17333.333333 -3120.168490 733.856961
v 10333.333333 -3120.168490 733.856961
v -17333.333333 -1915.640931 267.220498
v 10333.333333 -1915.640931 267.220498
v -17333.333333 -645.878516 29.860766
v 10333.333333 -645.878516 29.860766
v -17333.333333 645.878516 29.860766
v 10333.333333 645.878516 29.860766
v -17333.333333 1915.640931 267.220498
v 10333.333333 1915.640931 267.220498
v -17333.333333 3120.168490 733.856961
v 10333.333333 3120.168490 733.856961
v -17333.333333 4218.442455 1413.879409
v 10333.333333 4218.442455 1413.879409
v -17333.333333 5173.062421 2284.130494
v 10333.333333 5173.062421 2284.130494
v -17333.333333 5951.519950 3314.974860
v 10333.333333 5951.519950 3314.974860
v -17333.333333 6527.305606 4471.308337
v 10333.333333 6527.305606 4471.308337
v -17333.333333 6880.811698 5713.753375
v 10333.333333 6880.811698 5713.753375
vt 2480.884586 -688.081170 0.000000
vt 2605.978947 -652.730561 0.000000
vt 2351.380105 -700.000000 0.000000
vt 2722.403250 -595.151995 0.000000
vt 2826.192805 -517.306242 0.000000
vt 2913.813183 -421.844245 0.000000
vt 2982.280576 -312.016849 0.000000
vt 3029.263411 -191.564093 0.000000
vt 3053.161743 -64.587852 0.000000
vt 0.000000 -700.000000 0.000000
vt 3053.161743 64.587852 0.000000
vt 2351.380105 700.000000 0.000000
vt 3029.263411 191.564093 0.000000
vt 2982.280576 312.016849 0.000000
vt 2913.813183 421.844245 0.000000
vt 2826.192805 517.306242 0.000000
vt 2722.403250 595.151995 0.000000
vt 2605.978947 652.730561 0.000000
vt 2480.884586 688.081170 0.000000
vt 0.000000 700.000000 0.000000
vt 798.623341 3799.999999 0.000000
vt 175.000000 3799.999999 0.000000
vt 525.000000 1464.594536 0.000000
vt 175.000000 -4499.999999 0.000000
vt 525.000000 -4499.999999 0.000000
vt -798.623341 3799.999999 0.000000
vt -525.000000 1464.594536 0.000000
vt -175.000000 3799.999999 0.000000
vt -175.000000 -4499.999999 0.000000
vt -525.000000 -4499.999999 0.000000
vt 5964.594548 700.000000 0.000000
vt 0.000000 700.000000 0.000000
vt 5964.594548 -700.000000 0.000000
vt 0.000000 -700.000000 0.000000
vt -184.306161 555.642850 0.000000
vt -294.374035 611.179906 0.000000
vt -306.990089 488.952379 0.000000
vt -344.835327 488.953566 0.000000
vt -306.990089 366.707943 0.000000
vt -385.467966 357.919086 0.000000
vt -306.990089 244.471962 0.000000
vt -414.109644 218.719791 0.000000
vt -306.990089 122.235981 0.000000
vt -428.954054 73.627671 0.000000
vt -306.990089 0.000000 0.000000
vt -428.954054 -73.627671 0.000000
vt -306.990089 -122.235981 0.000000
vt -414.109644 -218.719791 0.000000
vt -306.990089 -244.471962 0.000000
vt -385.467966 -357.919086 0.000000
vt -306.990089 -366.707943 0.000000
vt -344.835327 -488.953566 0.000000
vt -306.990089 -488.952379 0.000000
vt -294.374035 -611.179906 0.000000
vt -184.306161 -555.642850 0.000000
vt -185.026123 -488.948551 0.000000
vt -73.192033 -504.674975 0.000000
vt -63.062158 -488.944724 0.000000
vt 38.305545 -455.392710 0.000000
vt -63.062158 -366.707943 0.000000
vt 58.901807 -366.707943 0.000000
vt -63.062158 -244.471962 0.000000
vt 58.901807 -244.471962 0.000000
vt -63.062158 -122.235981 0.000000
vt 58.901807 -122.235981 0.000000
vt -63.062158 0.000000 0.000000
vt 58.901807 0.000000 0.000000
vt -63.062158 122.235981 0.000000
vt 58.901807 122.235981 0.000000
vt -63.062158 244.471962 0.000000
vt 58.901807 244.471962 0.000000
vt -63.062158 366.707943 0.000000
vt 58.901807 366.707943 0.000000
vt 38.305545 455.392710 0.000000
vt 149.604592 405.236987 0.000000
vt 180.865772 366.707943 0.000000
vt 260.081710 351.481931 0.000000
vt 180.865772 244.471962 0.000000
vt 302.829737 244.471962 0.000000
vt 302.829737 122.235981 0.000000
vt 424.793702 122.235981 0.000000
vt 424.793702 0.000000 0.000000
vt 546.757667 0.000000 0.000000
vt 546.757667 -122.235981 0.000000
vt 576.111726 -125.234691 0.000000
vt 474.950643 -217.878240 0.000000
vt 424.793702 -122.235981 0.000000
vt 424.793702 -244.471962 0.000000
vt 302.829737 -122.235981 0.000000
vt 302.829737 -244.471962 0.000000
vt 180.865772 -122.235981 0.000000
vt 180.865772 -244.471962 0.000000
vt 149.604592 -405.236987 0.000000
vt 180.865772 -366.707943 0.000000
vt 260.081710 -351.481931 0.000000
vt 368.932385 -290.684622 0.000000
vt 668.721632 0.000000 0.000000
vt 576.111726 125.234691 0.000000
vt 546.757667 122.235981 0.000000
vt 474.950643 217.878240 0.000000
vt 424.793702 244.471962 0.000000
vt 368.932385 290.684622 0.000000
vt -63.062158 488.944724 0.000000
vt -73.192033 504.674975 0.000000
vt -185.026123 488.948551 0.000000
vt -185.026123 366.707943 0.000000
vt -185.026123 244.471962 0.000000
vt -185.026123 122.235981 0.000000
vt -185.026123 0.000000 0.000000
vt -185.026123 -122.235981 0.000000
vt -185.026123 -244.471962 0.000000
vt -185.026123 -366.707943 0.000000
vt 180.865772 122.235981 0.000000
vt 180.865772 0.000000 0.000000
vt 302.829737 0.000000 0.000000
vt 184.306161 -555.642850 0.000000
vt 294.374035 -611.179906 0.000000
vt 306.990089 -488.952379 0.000000
vt 344.835327 -488.953566 0.000000
vt 306.990089 -366.707943 0.000000
vt 385.467966 -357.919086 0.000000
vt 306.990089 -244.471962 0.000000
vt 414.109644 -218.719791 0.000000
vt 306.990089 -122.235981 0.000000
vt 428.954054 -73.627671 0.000000
vt 306.990089 0.000000 0.000000
vt 428.954054 73.627671 0.000000
vt 306.990089 122.235981 0.000000
vt 414.109644 218.719791 0.000000
vt 306.990089 244.471962 0.000000
vt 385.467966 357.919086 0.000000
vt 306.990089 366.707943 0.000000
vt 344.835327 488.953566 0.000000
vt 306.990089 488.952379 0.000000
vt 294.374035 611.179906 0.000000
vt 184.306161 555.642850 0.000000
vt 185.026123 488.948551 0.000000
vt 73.192033 504.674975 0.000000
vt 63.062158 488.944724 0.000000
vt -38.305545 455.392710 0.000000
vt 63.062158 366.707943 0.000000
vt -58.901807 366.707943 0.000000
vt 63.062158 244.471962 0.000000
vt -58.901807 244.471962 0.000000
vt 63.062158 122.235981 0.000000
vt -58.901807 122.235981 0.000000
vt 63.062158 0.000000 0.000000
vt -58.901807 0.000000 0.000000
vt 63.062158 -122.235981 0.000000
vt -58.901807 -122.235981 0.000000
vt 63.062158 -244.471962 0.000000
vt -58.901807 -244.471962 0.000000
vt 63.062158 -366.707943 0.000000
vt -58.901807 -366.707943 0.000000
vt -38.305545 -455.392710 0.000000
vt -149.604592 -405.236987 0.000000
vt -180.865772 -366.707943 0.000000
vt -260.081710 -351.481931 0.000000
vt -180.865772 -244.471962 0.000000
vt -302.829737 -244.471962 0.000000
vt -302.829737 -122.235981 0.000000
vt -424.793702 -122.235981 0.000000
vt -424.793702 0.000000 0.000000
vt -546.757667 0.000000 0.000000
vt -546.757667 122.235981 0.000000
vt -576.111726 125.234691 0.000000
vt -474.950643 217.878240 0.000000
vt -424.793702 122.235981 0.000000
vt -424.793702 244.471962 0.000000
vt -302.829737 122.235981 0.000000
vt -302.829737 244.471962 0.000000
vt -180.865772 122.235981 0.000000
vt -180.865772 244.471962 0.000000
vt -149.604592 405.236987 0.000000
vt -180.865772 366.707943 0.000000
vt -260.081710 351.481931 0.000000
vt -368.932385 290.684622 0.000000
vt -668.721632 0.000000 0.000000
vt -576.111726 -125.234691 0.000000
vt -546.757667 -122.235981 0.000000
vt -474.950643 -217.878240 0.000000
vt -424.793702 -244.471962 0.000000
vt -368.932385 -290.684622 0.000000
vt 63.062158 -488.944724 0.000000
vt 73.192033 -504.674975 0.000000
vt 185.026123 -488.948551 0.000000
vt 185.026123 -366.707943 0.000000
vt 185.026123 -244.471962 0.000000
vt 185.026123 -122.235981 0.000000
vt 185.026123 0.000000 0.000000
vt 185.026123 122.235981 0.000000
vt 185.026123 244.471962 0.000000
vt 185.026123 366.707943 0.000000
vt -180.865772 -122.235981 0.000000
vt -180.865772 0.000000 0.000000
vt -302.829737 0.000000 0.000000
vt 87.500000 1649.336142 0.000000
vt -536.123341 1649.336142 0.000000
vt 87.500000 1527.163095 0.000000
vt -551.193405 1519.976445 0.000000
vt 87.500000 1404.990047 0.000000
vt -565.750276 1390.616748 0.000000
vt 87.500000 1282.817000 0.000000
vt -579.298237 1261.257050 0.000000
vt 87.500000 1160.643952 0.000000
vt -591.375929 1131.897353 0.000000
vt 87.500000 1038.470905 0.000000
vt -601.572061 1002.537655 0.000000
vt 87.500000 916.297857 0.000000
vt -609.539415 873.177958 0.000000
vt 87.500000 794.124809 0.000000
vt -615.006672 743.818260 0.000000
vt 87.500000 671.951762 0.000000
vt -617.787652 614.458563 0.000000
vt 87.500000 549.778714 0.000000
vt -617.787652 485.098865 0.000000
vt 87.500000 427.605667 0.000000
vt -615.006672 355.739168 0.000000
vt 87.500000 305.432619 0.000000
vt -609.539415 226.379471 0.000000
vt 87.500000 183.259571 0.000000
vt -601.572061 97.019773 0.000000
vt 87.500000 61.086524 0.000000
vt -591.375929 -32.339924 0.000000
vt 87.500000 -61.086524 0.000000
vt -579.298237 -161.699622 0.000000
vt 87.500000 -183.259571 0.000000
vt -565.750276 -291.059319 0.000000
vt 87.500000 -305.432619 0.000000
vt -551.193405 -420.419017 0.000000
vt 87.500000 -427.605667 0.000000
vt -536.123341 -549.778714 0.000000
vt 87.500000 -549.778714 0.000000
vt 6750.000000 -420.419017 0.000000
vt 3983.333333 -420.419017 0.000000
vt 6750.000000 -549.778714 0.000000
vt 1216.666667 -420.419017 0.000000
vt -1550.000000 -427.605667 0.000000
vt -1550.000000 -305.432619 0.000000
vt 1216.666667 -291.059319 0.000000
vt -1550.000000 -183.259571 0.000000
vt 1216.666667 -161.699622 0.000000
vt -1550.000000 -61.086524 0.000000
vt 1216.666667 -32.339924 0.000000
vt -1550.000000 61.086524 0.000000
vt 1216.666667 97.019773 0.000000
vt -1550.000000 183.259571 0.000000
vt 1216.666667 226.379471 0.000000
vt -1550.000000 305.432619 0.000000
vt 1216.666667 355.739168 0.000000
vt -1550.000000 427.605667 0.000000
vt 1216.666667 485.098865 0.000000
vt -1550.000000 549.778714 0.000000
vt 1216.666667 614.458563 0.000000
vt -1550.000000 671.951762 0.000000
vt 1216.666667 743.818260 0.000000
vt -1550.000000 794.124809 0.000000
vt 1216.666667 873.177958 0.000000
vt -1550.000000 916.297857 0.000000
vt 1216.666667 1002.537655 0.000000
vt -1550.000000 1038.470905 0.000000
vt 1216.666667 1131.897353 0.000000
vt -1550.000000 1160.643952 0.000000
vt 1216.666667 1261.257050 0.000000
vt -1550.000000 1282.817000 0.000000
vt 1216.666667 1390.616748 0.000000
vt -1550.000000 1404.990047 0.000000
vt 1216.666667 1519.976445 0.000000
vt -1550.000000 1527.163095 0.000000
vt -1550.000000 1649.336142 0.000000
vt 3983.333333 1519.976445 0.000000
vt 6750.000000 1649.336142 0.000000
vt 6750.000000 1519.976445 0.000000
vt 6750.000000 1390.616748 0.000000
vt 3983.333333 1390.616748 0.000000
vt 6750.000000 1261.257050 0.000000
vt 3983.333333 1261.257050 0.000000
vt 6750.000000 1131.897353 0.000000
vt 3983.333333 1131.897353 0.000000
vt 6750.000000 1002.537655 0.000000
vt 3983.333333 1002.537655 0.000000
vt 6750.000000 873.177958 0.000000
vt 3983.333333 873.177958 0.000000
vt 6750.000000 743.818260 0.000000
vt 3983.333333 743.818260 0.000000
vt 6750.000000 614.458563 0.000000
vt 3983.333333 614.458563 0.000000
vt 6750.000000 485.098865 0.000000
vt 3983.333333 485.098865 0.000000
vt 6750.000000 355.739168 0.000000
vt 3983.333333 355.739168 0.000000
vt 6750.000000 226.379471 0.000000
vt 3983.333333 226.379471 0.000000
vt 6750.000000 97.019773 0.000000
vt 3983.333333 97.019773 0.000000
vt 6750.000000 -32.339924 0.000000
vt 3983.333333 -32.339924 0.000000
vt 6750.000000 -161.699622 0.000000
vt 3983.333333 -161.699622 0.000000
vt 6750.000000 -291.059319 0.000000
vt 3983.333333 -291.059319 0.000000
vt -1550.000000 -549.778714 0.000000
vt 571.375337 688.081170 0.000000
vt 571.375337 -688.081170 0.000000
vt 700.000000 700.000000 0.000000
vt 700.000000 -700.000000 0.000000
vt 1050.000000 -700.000000 0.000000
vt 447.130834 -652.730561 0.000000
vt 447.130834 652.730561 0.000000
vt 331.497486 -595.151995 0.000000
vt 331.497486 595.151995 0.000000
vt 228.413049 -517.306242 0.000000
vt 228.413049 517.306242 0.000000
vt 141.387941 -421.844245 0.000000
vt 141.387941 421.844245 0.000000
vt 73.385696 -312.016849 0.000000
vt 73.385696 312.016849 0.000000
vt 26.722050 -191.564093 0.000000
vt 26.722050 191.564093 0.000000
vt 2.986077 -64.587852 0.000000
vt 2.986077 64.587852 0.000000
vt 1050.000000 700.000000 0.000000
vn -0.011637 0.000000 0.099321
vn -0.011637 0.000000 0.099321
vn -0.011637 0.000000 0.099321
vn -0.011637 0.000000 0.099321
vn -0.011637 0.000000 0.099321
vn -0.011637 0.000000 0.099321
vn -0.011637 0.000000 0.099321
vn -0.011637 0.000000 0.099321
vn -0.011637 0.000000 0.099321
vn -0.011637 0.000000 0.099321
vn -0.011637 0.000000 0.099321
vn -0.011637 0.000000 0.099321
vn -0.011637 0.000000 0.099321
vn -0.011637 0.000000 0.099321
vn -0.011637 0.000000 0.099321
vn -0.011637 0.000000 0.099321
vn -0.011637 0.000000 0.099321
vn -0.011637 0.000000 0.099321
vn -0.011637 0.000000 0.099321
vn -0.011637 0.000000 0.099321
vn 0.000000 0.100000 0.000000
vn 0.000000 0.100000 0.000000
vn 0.000000 0.100000 0.000000
vn 0.000000 0.100000 0.000000
vn 0.000000 0.100000 0.000000
vn 0.000000 -0.100000 0.000000
vn 0.000000 -0.100000 0.000000
vn 0.000000 -0.100000 0.000000
vn 0.000000 -0.100000 0.000000
vn 0.000000 -0.100000 0.000000
vn 0.000000 0.000000 0.100000
vn 0.000000 0.000000 0.100000
vn 0.000000 0.000000 0.100000
vn 0.000000 0.000000 0.100000
vn 0.098481 0.017365 0.000000
vn 0.100000 -0.000000 0.000000
vn 0.098690 0.005008 -0.015339
vn 0.098481 0.000000 -0.017365
vn 0.094847 0.010385 -0.029937
vn 0.093969 -0.000000 -0.034202
vn 0.088576 0.014351 -0.044140
vn 0.086603 0.000000 -0.050000
vn 0.080074 0.016781 -0.057502
vn 0.076604 -0.000000 -0.064279
vn 0.069607 0.017600 -0.069607
vn 0.064279 -0.000000 -0.076604
vn 0.057502 0.016781 -0.080074
vn 0.050000 0.000000 -0.086603
vn 0.044140 0.014351 -0.088576
vn 0.034202 -0.000000 -0.093969
vn 0.029937 0.010385 -0.094847
vn 0.017365 -0.000000 -0.098481
vn 0.015339 0.005008 -0.098690
vn 0.000000 -0.000000 -0.100000
vn 0.000000 0.017365 -0.098481
vn 0.008538 0.020973 -0.097402
vn 0.000000 0.034202 -0.093969
vn 0.001478 0.036303 -0.093166
vn 0.000000 0.050000 -0.086603
vn 0.017536 0.042218 -0.088939
vn 0.010439 0.056452 -0.081879
vn 0.033159 0.046581 -0.082041
vn 0.026070 0.060817 -0.074977
vn 0.047858 0.049255 -0.072688
vn 0.040777 0.063492 -0.065620
vn 0.061174 0.050155 -0.061174
vn 0.054100 0.064393 -0.054100
vn 0.072688 0.049255 -0.047858
vn 0.065620 0.063492 -0.040777
vn 0.082041 0.046581 -0.033159
vn 0.074977 0.060817 -0.026070
vn 0.088939 0.042218 -0.017536
vn 0.081879 0.056452 -0.010439
vn 0.086603 0.050000 0.000000
vn 0.076604 0.064279 0.000000
vn 0.072340 0.068977 -0.003026
vn 0.064279 0.076604 0.000000
vn 0.065644 0.073212 -0.018192
vn 0.054322 0.083389 -0.009763
vn 0.045797 0.085826 -0.023162
vn 0.033642 0.093247 -0.013162
vn 0.024145 0.093990 -0.024145
vn 0.012258 0.098486 -0.012258
vn 0.002763 0.097844 -0.020468
vn 0.000000 0.098481 -0.017365
vn 0.000000 0.093969 -0.034202
vn 0.013162 0.093247 -0.033642
vn 0.001038 0.091042 -0.041356
vn 0.023162 0.085826 -0.045797
vn 0.009763 0.083389 -0.054322
vn 0.032461 0.075807 -0.056565
vn 0.018192 0.073212 -0.065644
vn 0.000000 0.064279 -0.076604
vn 0.003026 0.068977 -0.072340
vn 0.000000 0.076604 -0.064279
vn 0.000000 0.086603 -0.050000
vn 0.017365 0.098481 0.000000
vn 0.020468 0.097844 -0.002763
vn 0.034202 0.093969 0.000000
vn 0.041356 0.091042 -0.001038
vn 0.050000 0.086603 0.000000
vn 0.093166 0.036303 -0.001478
vn 0.093969 0.034202 0.000000
vn 0.097402 0.020973 -0.008538
vn 0.093305 0.026706 -0.024101
vn 0.086620 0.030934 -0.039243
vn 0.077555 0.033526 -0.053490
vn 0.066396 0.034398 -0.066396
vn 0.053490 0.033526 -0.077555
vn 0.039243 0.030934 -0.086620
vn 0.024101 0.026706 -0.093305
vn 0.056565 0.075807 -0.032461
vn 0.045387 0.076681 -0.045387
vn 0.035300 0.086647 -0.035300
vn 0.000000 -0.017365 -0.098481
vn 0.015339 -0.005008 -0.098690
vn 0.029937 -0.010385 -0.094847
vn 0.044140 -0.014351 -0.088576
vn 0.057502 -0.016781 -0.080074
vn 0.069607 -0.017600 -0.069607
vn 0.080074 -0.016781 -0.057502
vn 0.088576 -0.014351 -0.044140
vn 0.094847 -0.010385 -0.029937
vn 0.098690 -0.005008 -0.015339
vn 0.098481 -0.017365 0.000000
vn 0.097402 -0.020973 -0.008538
vn 0.093969 -0.034202 0.000000
vn 0.093166 -0.036303 -0.001478
vn 0.086603 -0.050000 0.000000
vn 0.088939 -0.042218 -0.017536
vn 0.081879 -0.056452 -0.010439
vn 0.082041 -0.046581 -0.033159
vn 0.074977 -0.060817 -0.026070
vn 0.072688 -0.049255 -0.047858
vn 0.065620 -0.063492 -0.040777
vn 0.061174 -0.050155 -0.061174
vn 0.054100 -0.064393 -0.054100
vn 0.047858 -0.049255 -0.072688
vn 0.040777 -0.063492 -0.065620
vn 0.033159 -0.046581 -0.082041
vn 0.026070 -0.060817 -0.074977
vn 0.017536 -0.042218 -0.088939
vn 0.010439 -0.056452 -0.081879
vn 0.000000 -0.050000 -0.086603
vn 0.000000 -0.064279 -0.076604
vn 0.003026 -0.068977 -0.072340
vn 0.000000 -0.076604 -0.064279
vn 0.018192 -0.073212 -0.065644
vn 0.009763 -0.083389 -0.054322
vn 0.023162 -0.085826 -0.045797
vn 0.013162 -0.093247 -0.033642
vn 0.024145 -0.093990 -0.024145
vn 0.012258 -0.098486 -0.012258
vn 0.020468 -0.097844 -0.002763
vn 0.017365 -0.098481 0.000000
vn 0.034202 -0.093969 0.000000
vn 0.033642 -0.093247 -0.013162
vn 0.041356 -0.091042 -0.001038
vn 0.045797 -0.085826 -0.023162
vn 0.054322 -0.083389 -0.009763
vn 0.056565 -0.075807 -0.032461
vn 0.065644 -0.073212 -0.018192
vn 0.076604 -0.064279 0.000000
vn 0.072340 -0.068977 -0.003026
vn 0.064279 -0.076604 0.000000
vn 0.050000 -0.086603 0.000000
vn 0.000000 -0.098481 -0.017365
vn 0.002763 -0.097844 -0.020468
vn 0.000000 -0.093969 -0.034202
vn 0.001038 -0.091042 -0.041356
vn 0.000000 -0.086603 -0.050000
vn 0.001478 -0.036303 -0.093166
vn 0.000000 -0.034202 -0.093969
vn 0.008538 -0.020973 -0.097402
vn 0.024101 -0.026706 -0.093305
vn 0.039243 -0.030934 -0.086620
vn 0.053490 -0.033526 -0.077555
vn 0.066396 -0.034398 -0.066396
vn 0.077555 -0.033526 -0.053490
vn 0.086620 -0.030934 -0.039243
vn 0.093305 -0.026706 -0.024101
vn 0.032461 -0.075807 -0.056565
vn 0.045387 -0.076681 -0.045387
vn 0.035300 -0.086647 -0.035300
vn 0.018375 0.098297 0.000000
vn 0.036124 0.093247 0.000000
vn 0.052643 0.085022 0.000000
vn 0.067370 0.073901 0.000000
vn 0.079802 0.060263 0.000000
vn 0.089516 0.044574 0.000000
vn 0.096183 0.027366 0.000000
vn 0.099573 0.009227 0.000000
vn 0.099573 -0.009227 0.000000
vn 0.096183 -0.027366 0.000000
vn 0.089516 -0.044574 0.000000
vn 0.079802 -0.060263 0.000000
vn 0.067370 -0.073901 0.000000
vn 0.052643 -0.085022 0.000000
vn 0.036124 -0.093247 0.000000
vn 0.018375 -0.098297 0.000000
vn 0.000000 -0.098297 -0.018375
vn 0.000000 -0.098297 -0.018375
vn 0.000000 -0.098297 -0.018375
vn 0.000000 -0.093247 -0.036124
vn 0.000000 -0.085022 -0.052643
vn 0.000000 -0.073901 -0.067370
vn 0.000000 -0.060263 -0.079802
vn 0.000000 -0.044574 -0.089516
vn 0.000000 -0.027366 -0.096183
vn 0.000000 -0.009227 -0.099573
vn -0.000000 0.009227 -0.099573
vn -0.000000 0.027366 -0.096183
vn -0.000000 0.044574 -0.089516
vn -0.000000 0.060263 -0.079802
vn -0.000000 0.073901 -0.067370
vn -0.000000 0.085022 -0.052643
vn -0.000000 0.093247 -0.036124
vn -0.000000 0.098297 -0.018375
vn -0.000000 0.098297 -0.018375
vn -0.000000 0.098297 -0.018375
vn -0.000000 0.093247 -0.036124
vn -0.000000 0.093247 -0.036124
vn -0.000000 0.085022 -0.052643
vn -0.000000 0.085022 -0.052643
vn -0.000000 0.073901 -0.067370
vn -0.000000 0.073901 -0.067370
vn -0.000000 0.060263 -0.079802
vn -0.000000 0.060263 -0.079802
vn -0.000000 0.044574 -0.089516
vn -0.000000 0.044574 -0.089516
vn -0.000000 0.027366 -0.096183
vn -0.000000 0.027366 -0.096183
vn -0.000000 0.009227 -0.099573
vn -0.000000 0.009227 -0.099573
vn 0.000000 -0.009227 -0.099573
vn 0.000000 -0.009227 -0.099573
vn 0.000000 -0.027366 -0.096183
vn 0.000000 -0.027366 -0.096183
vn 0.000000 -0.044574 -0.089516
vn 0.000000 -0.044574 -0.089516
vn 0.000000 -0.060263 -0.079802
vn 0.000000 -0.060263 -0.079802
vn 0.000000 -0.073901 -0.067370
vn 0.000000 -0.073901 -0.067370
vn 0.000000 -0.085022 -0.052643
vn 0.000000 -0.085022 -0.052643
vn 0.000000 -0.093247 -0.036124
vn 0.000000 -0.093247 -0.036124
vn -0.100000 0.000000 0.000000
vn -0.100000 0.000000 0.000000
vn -0.100000 0.000000 0.000000
vn -0.100000 0.000000 0.000000
vn -0.100000 0.000000 0.000000
vn -0.100000 0.000000 0.000000
vn -0.100000 0.000000 0.000000
vn -0.100000 0.000000 0.000000
vn -0.100000 0.000000 0.000000
vn -0.100000 0.000000 0.000000
vn -0.100000 0.000000 0.000000
vn -0.100000 0.000000 0.000000
vn -0.100000 0.000000 0.000000
vn -0.100000 0.000000 0.000000
vn -0.100000 0.000000 0.000000
vn -0.100000 0.000000 0.000000
vn -0.100000 0.000000 0.000000
vn -0.100000 0.000000 0.000000
vn -0.100000 0.000000 0.000000
vn -0.100000 0.000000 0.000000
usemtl Paint_-_Enamel_Glossy_(Red)
f 2/1/1 3/2/2 1/3/3
f 1/3/3 3/2/2 4/4/4
f 1/3/3 4/4/4 5/5/5
f 5/5/5 6/6/6 1/3/3
f 1/3/3 6/6/6 7/7/7
f 1/3/3 7/7/7 8/8/8
f 8/8/8 9/9/9 1/3/3
f 1/3/3 9/9/9 20/10/10
f 20/10/10 9/9/9 10/11/11
f 20/10/10 10/11/11 18/12/12
f 18/12/12 10/11/11 11/13/13
f 18/12/12 11/13/13 12/14/14
f 12/14/14 13/15/15 18/12/12
f 18/12/12 13/15/15 14/16/16
f 18/12/12 14/16/16 15/17/17
f 15/17/17 16/18/18 18/12/12
f 18/12/12 16/18/18 17/19/19
f 18/12/12 19/20/20 20/10/10
f 18/21/21 21/22/22 19/23/23
f 19/23/23 21/22/22 22/24/24
f 19/23/23 22/24/24 23/25/25
f 1/26/26 20/27/27 24/28/28
f 24/28/28 20/27/27 26/29/29
f 26/29/29 20/27/27 25/30/30
f 19/31/31 23/32/32 20/33/33
f 20/33/33 23/32/32 25/34/34
f 52/35/35 27/36/36 54/37/37
f 54/37/37 27/36/36 28/38/38
f 54/37/37 28/38/38 53/39/39
f 53/39/39 28/38/38 29/40/40
f 53/39/39 29/40/40 61/41/41
f 61/41/41 29/40/40 30/42/42
f 61/41/41 30/42/42 68/43/43
f 68/43/43 30/42/42 31/44/44
f 68/43/43 31/44/44 76/45/45
f 76/45/45 31/44/44 32/46/46
f 76/45/45 32/46/46 84/47/47
f 84/47/47 32/46/46 33/48/48
f 84/47/47 33/48/48 92/49/49
f 92/49/49 33/48/48 34/50/50
f 92/49/49 34/50/50 99/51/51
f 99/51/51 34/50/50 35/52/52
f 99/51/51 35/52/52 106/53/53
f 106/53/53 35/52/52 36/54/54
f 106/53/53 36/54/54 37/55/55
f 106/53/53 37/55/55 105/56/56
f 105/56/56 37/55/55 38/57/57
f 105/56/56 38/57/57 104/58/58
f 104/58/58 38/57/57 39/59/59
f 104/58/58 39/59/59 101/60/60
f 101/60/60 39/59/59 102/61/61
f 101/60/60 102/61/61 94/62/62
f 94/62/62 102/61/61 95/63/63
f 94/62/62 95/63/63 86/64/64
f 86/64/64 95/63/63 87/65/65
f 86/64/64 87/65/65 78/66/66
f 78/66/66 87/65/65 79/67/67
f 78/66/66 79/67/67 70/68/68
f 70/68/68 79/67/67 71/69/69
f 70/68/68 71/69/69 63/70/70
f 63/70/70 71/69/69 64/71/71
f 63/70/70 64/71/71 58/72/72
f 58/72/72 64/71/71 59/73/73
f 58/72/72 59/73/73 50/74/74
f 50/74/74 59/73/73 49/75/75
f 49/75/75 59/73/73 60/76/76
f 49/75/75 60/76/76 48/77/77
f 48/77/77 60/76/76 65/78/78
f 48/77/77 65/78/78 66/79/79
f 66/79/79 65/78/78 73/80/80
f 66/79/79 73/80/80 74/81/81
f 74/81/81 73/80/80 82/82/82
f 74/81/81 82/82/82 83/83/83
f 83/83/83 82/82/82 91/84/84
f 83/83/83 91/84/84 44/85/85
f 44/85/85 91/84/84 43/86/86
f 43/86/86 91/84/84 90/87/87
f 43/86/86 90/87/87 98/88/88
f 98/88/88 90/87/87 89/89/89
f 98/88/88 89/89/89 97/90/90
f 97/90/90 89/89/89 88/91/91
f 97/90/90 88/91/91 96/92/92
f 96/92/92 88/91/91 87/65/65
f 96/92/92 87/65/65 95/63/63
f 39/59/59 40/93/93 102/61/61
f 102/61/61 40/93/93 103/94/94
f 102/61/61 103/94/94 95/63/63
f 95/63/63 103/94/94 96/92/92
f 40/93/93 41/95/95 103/94/94
f 103/94/94 41/95/95 96/92/92
f 96/92/92 41/95/95 97/90/90
f 97/90/90 41/95/95 42/96/96
f 97/90/90 42/96/96 98/88/88
f 98/88/88 42/96/96 43/86/86
f 44/85/85 21/97/22 83/83/83
f 83/83/83 21/97/22 45/98/97
f 83/83/83 45/98/97 75/99/98
f 75/99/98 45/98/97 46/100/99
f 75/99/98 46/100/99 74/81/81
f 74/81/81 46/100/99 67/101/100
f 74/81/81 67/101/100 66/79/79
f 66/79/79 67/101/100 47/102/101
f 66/79/79 47/102/101 48/77/77
f 46/100/99 47/102/101 67/101/100
f 58/72/72 50/74/74 56/103/102
f 56/103/102 50/74/74 51/104/103
f 56/103/102 51/104/103 55/105/104
f 55/105/104 51/104/103 52/35/35
f 55/105/104 52/35/35 54/37/37
f 55/105/104 54/37/37 53/39/39
f 56/103/102 55/105/104 57/106/105
f 57/106/105 55/105/104 53/39/39
f 57/106/105 53/39/39 62/107/106
f 62/107/106 53/39/39 61/41/41
f 62/107/106 61/41/41 69/108/107
f 69/108/107 61/41/41 68/43/43
f 69/108/107 68/43/43 77/109/108
f 77/109/108 68/43/43 76/45/45
f 77/109/108 76/45/45 85/110/109
f 85/110/109 76/45/45 84/47/47
f 85/110/109 84/47/47 93/111/110
f 93/111/110 84/47/47 92/49/49
f 93/111/110 92/49/49 100/112/111
f 100/112/111 92/49/49 99/51/51
f 100/112/111 99/51/51 105/56/56
f 105/56/56 99/51/51 106/53/53
f 63/70/70 58/72/72 57/106/105
f 57/106/105 58/72/72 56/103/102
f 63/70/70 57/106/105 62/107/106
f 65/78/78 60/76/76 59/73/73
f 65/78/78 59/73/73 64/71/71
f 70/68/68 63/70/70 62/107/106
f 70/68/68 62/107/106 69/108/107
f 65/78/78 64/71/71 72/113/112
f 72/113/112 64/71/71 71/69/69
f 72/113/112 71/69/69 80/114/113
f 80/114/113 71/69/69 79/67/67
f 80/114/113 79/67/67 88/91/91
f 88/91/91 79/67/67 87/65/65
f 78/66/66 70/68/68 69/108/107
f 78/66/66 69/108/107 77/109/108
f 65/78/78 72/113/112 73/80/80
f 73/80/80 72/113/112 81/115/114
f 73/80/80 81/115/114 82/82/82
f 82/82/82 81/115/114 90/87/87
f 82/82/82 90/87/87 91/84/84
f 81/115/114 72/113/112 80/114/113
f 83/83/83 75/99/98 74/81/81
f 86/64/64 78/66/66 77/109/108
f 86/64/64 77/109/108 85/110/109
f 88/91/91 89/89/89 80/114/113
f 80/114/113 89/89/89 81/115/114
f 89/89/89 90/87/87 81/115/114
f 94/62/62 86/64/64 85/110/109
f 94/62/62 85/110/109 93/111/110
f 101/60/60 94/62/62 93/111/110
f 101/60/60 93/111/110 100/112/111
f 104/58/58 101/60/60 100/112/111
f 104/58/58 100/112/111 105/56/56
f 122/116/115 36/117/54 123/118/116
f 123/118/116 36/117/54 35/119/52
f 123/118/116 35/119/52 126/120/117
f 126/120/117 35/119/52 34/121/50
f 126/120/117 34/121/50 131/122/118
f 131/122/118 34/121/50 33/123/48
f 131/122/118 33/123/48 138/124/119
f 138/124/119 33/123/48 32/125/46
f 138/124/119 32/125/46 146/126/120
f 146/126/120 32/125/46 31/127/44
f 146/126/120 31/127/44 154/128/121
f 154/128/121 31/127/44 30/129/42
f 154/128/121 30/129/42 162/130/122
f 162/130/122 30/129/42 29/131/40
f 162/130/122 29/131/40 169/132/123
f 169/132/123 29/131/40 28/133/38
f 169/132/123 28/133/38 176/134/124
f 176/134/124 28/133/38 27/135/36
f 176/134/124 27/135/36 107/136/125
f 176/134/124 107/136/125 175/137/126
f 175/137/126 107/136/125 108/138/127
f 175/137/126 108/138/127 174/139/128
f 174/139/128 108/138/127 109/140/129
f 174/139/128 109/140/129 171/141/130
f 171/141/130 109/140/129 172/142/131
f 171/141/130 172/142/131 164/143/132
f 164/143/132 172/142/131 165/144/133
f 164/143/132 165/144/133 156/145/134
f 156/145/134 165/144/133 157/146/135
f 156/145/134 157/146/135 148/147/136
f 148/147/136 157/146/135 149/148/137
f 148/147/136 149/148/137 140/149/138
f 140/149/138 149/148/137 141/150/139
f 140/149/138 141/150/139 133/151/140
f 133/151/140 141/150/139 134/152/141
f 133/151/140 134/152/141 128/153/142
f 128/153/142 134/152/141 129/154/143
f 128/153/142 129/154/143 120/155/144
f 120/155/144 129/154/143 119/156/145
f 119/156/145 129/154/143 130/157/146
f 119/156/145 130/157/146 118/158/147
f 118/158/147 130/157/146 135/159/148
f 118/158/147 135/159/148 136/160/149
f 136/160/149 135/159/148 143/161/150
f 136/160/149 143/161/150 144/162/151
f 144/162/151 143/161/150 152/163/152
f 144/162/151 152/163/152 153/164/153
f 153/164/153 152/163/152 161/165/154
f 153/164/153 161/165/154 114/166/155
f 114/166/155 161/165/154 113/167/156
f 113/167/156 161/165/154 160/168/157
f 113/167/156 160/168/157 168/169/158
f 168/169/158 160/168/157 159/170/159
f 168/169/158 159/170/159 167/171/160
f 167/171/160 159/170/159 158/172/161
f 167/171/160 158/172/161 166/173/162
f 166/173/162 158/172/161 157/146/135
f 166/173/162 157/146/135 165/144/133
f 109/140/129 110/174/163 172/142/131
f 172/142/131 110/174/163 173/175/164
f 172/142/131 173/175/164 165/144/133
f 165/144/133 173/175/164 166/173/162
f 110/174/163 111/176/165 173/175/164
f 173/175/164 111/176/165 166/173/162
f 166/173/162 111/176/165 167/171/160
f 167/171/160 111/176/165 112/177/166
f 167/171/160 112/177/166 168/169/158
f 168/169/158 112/177/166 113/167/156
f 114/166/155 24/178/28 153/164/153
f 153/164/153 24/178/28 115/179/167
f 153/164/153 115/179/167 145/180/168
f 145/180/168 115/179/167 116/181/169
f 145/180/168 116/181/169 144/162/151
f 144/162/151 116/181/169 137/182/170
f 144/162/151 137/182/170 136/160/149
f 136/160/149 137/182/170 117/183/171
f 136/160/149 117/183/171 118/158/147
f 116/181/169 117/183/171 137/182/170
f 128/153/142 120/155/144 125/184/172
f 125/184/172 120/155/144 121/185/173
f 125/184/172 121/185/173 124/186/174
f 124/186/174 121/185/173 122/116/115
f 124/186/174 122/116/115 123/118/116
f 124/186/174 123/118/116 126/120/117
f 125/184/172 124/186/174 127/187/175
f 127/187/175 124/186/174 126/120/117
f 127/187/175 126/120/117 132/188/176
f 132/188/176 126/120/117 131/122/118
f 132/188/176 131/122/118 139/189/177
f 139/189/177 131/122/118 138/124/119
f 139/189/177 138/124/119 147/190/178
f 147/190/178 138/124/119 146/126/120
f 147/190/178 146/126/120 155/191/179
f 155/191/179 146/126/120 154/128/121
f 155/191/179 154/128/121 163/192/180
f 163/192/180 154/128/121 162/130/122
f 163/192/180 162/130/122 170/193/181
f 170/193/181 162/130/122 169/132/123
f 170/193/181 169/132/123 175/137/126
f 175/137/126 169/132/123 176/134/124
f 133/151/140 128/153/142 127/187/175
f 127/187/175 128/153/142 125/184/172
f 133/151/140 127/187/175 132/188/176
f 135/159/148 130/157/146 129/154/143
f 135/159/148 129/154/143 134/152/141
f 140/149/138 133/151/140 132/188/176
f 140/149/138 132/188/176 139/189/177
f 135/159/148 134/152/141 142/194/182
f 142/194/182 134/152/141 141/150/139
f 142/194/182 141/150/139 150/195/183
f 150/195/183 141/150/139 149/148/137
f 150/195/183 149/148/137 158/172/161
f 158/172/161 149/148/137 157/146/135
f 148/147/136 140/149/138 139/189/177
f 148/147/136 139/189/177 147/190/178
f 135/159/148 142/194/182 143/161/150
f 143/161/150 142/194/182 151/196/184
f 143/161/150 151/196/184 152/163/152
f 152/163/152 151/196/184 160/168/157
f 152/163/152 160/168/157 161/165/154
f 151/196/184 142/194/182 150/195/183
f 153/164/153 145/180/168 144/162/151
f 156/145/134 148/147/136 147/190/178
f 156/145/134 147/190/178 155/191/179
f 158/172/161 159/170/159 150/195/183
f 150/195/183 159/170/159 151/196/184
f 159/170/159 160/168/157 151/196/184
f 164/143/132 156/145/134 155/191/179
f 164/143/132 155/191/179 163/192/180
f 171/141/130 164/143/132 163/192/180
f 171/141/130 163/192/180 170/193/181
f 174/139/128 171/141/130 170/193/181
f 174/139/128 170/193/181 175/137/126
f 21/197/22 18/198/21 45/199/97
f 45/199/97 18/198/21 17/200/185
f 45/199/97 17/200/185 46/201/99
f 46/201/99 17/200/185 16/202/186
f 46/201/99 16/202/186 47/203/101
f 47/203/101 16/202/186 15/204/187
f 47/203/101 15/204/187 48/205/77
f 48/205/77 15/204/187 14/206/188
f 48/205/77 14/206/188 49/207/75
f 49/207/75 14/206/188 13/208/189
f 49/207/75 13/208/189 50/209/74
f 50/209/74 13/208/189 12/210/190
f 50/209/74 12/210/190 51/211/103
f 51/211/103 12/210/190 11/212/191
f 51/211/103 11/212/191 52/213/35
f 52/213/35 11/212/191 10/214/192
f 52/213/35 10/214/192 27/215/36
f 27/215/36 10/214/192 9/216/193
f 27/215/36 9/216/193 107/217/125
f 107/217/125 9/216/193 8/218/194
f 107/217/125 8/218/194 108/219/127
f 108/219/127 8/218/194 7/220/195
f 108/219/127 7/220/195 109/221/129
f 109/221/129 7/220/195 6/222/196
f 109/221/129 6/222/196 110/223/163
f 110/223/163 6/222/196 5/224/197
f 110/223/163 5/224/197 111/225/165
f 111/225/165 5/224/197 4/226/198
f 111/225/165 4/226/198 112/227/166
f 112/227/166 4/226/198 3/228/199
f 112/227/166 3/228/199 113/229/156
f 113/229/156 3/228/199 2/230/200
f 113/229/156 2/230/200 114/231/155
f 114/231/155 2/230/200 1/232/26
f 114/231/155 1/232/26 24/233/28
f 177/234/201 193/235/202 26/236/29
f 26/236/29 193/235/202 194/237/203
f 26/236/29 194/237/203 115/238/167
f 115/238/167 194/237/203 116/239/169
f 116/239/169 194/237/203 196/240/204
f 116/239/169 196/240/204 117/241/171
f 117/241/171 196/240/204 198/242/205
f 117/241/171 198/242/205 118/243/147
f 118/243/147 198/242/205 200/244/206
f 118/243/147 200/244/206 119/245/145
f 119/245/145 200/244/206 202/246/207
f 119/245/145 202/246/207 120/247/144
f 120/247/144 202/246/207 204/248/208
f 120/247/144 204/248/208 121/249/173
f 121/249/173 204/248/208 206/250/209
f 121/249/173 206/250/209 122/251/115
f 122/251/115 206/250/209 208/252/210
f 122/251/115 208/252/210 36/253/54
f 36/253/54 208/252/210 210/254/211
f 36/253/54 210/254/211 37/255/55
f 37/255/55 210/254/211 212/256/212
f 37/255/55 212/256/212 38/257/57
f 38/257/57 212/256/212 214/258/213
f 38/257/57 214/258/213 39/259/59
f 39/259/59 214/258/213 216/260/214
f 39/259/59 216/260/214 40/261/93
f 40/261/93 216/260/214 218/262/215
f 40/261/93 218/262/215 41/263/95
f 41/263/95 218/262/215 220/264/216
f 41/263/95 220/264/216 42/265/96
f 42/265/96 220/264/216 222/266/217
f 42/265/96 222/266/217 43/267/86
f 43/267/86 222/266/217 224/268/218
f 43/267/86 224/268/218 44/269/85
f 44/269/85 224/268/218 21/270/22
f 21/270/22 224/268/218 223/271/219
f 21/270/22 223/271/219 22/272/24
f 22/272/24 223/271/219 192/273/220
f 192/273/220 223/271/219 191/274/221
f 191/274/221 223/271/219 221/275/222
f 191/274/221 221/275/222 190/276/223
f 190/276/223 221/275/222 219/277/224
f 190/276/223 219/277/224 189/278/225
f 189/278/225 219/277/224 217/279/226
f 189/278/225 217/279/226 188/280/227
f 188/280/227 217/279/226 215/281/228
f 188/280/227 215/281/228 187/282/229
f 187/282/229 215/281/228 213/283/230
f 187/282/229 213/283/230 186/284/231
f 186/284/231 213/283/230 211/285/232
f 186/284/231 211/285/232 185/286/233
f 185/286/233 211/285/232 209/287/234
f 185/286/233 209/287/234 184/288/235
f 184/288/235 209/287/234 207/289/236
f 184/288/235 207/289/236 183/290/237
f 183/290/237 207/289/236 205/291/238
f 183/290/237 205/291/238 182/292/239
f 182/292/239 205/291/238 203/293/240
f 182/292/239 203/293/240 181/294/241
f 181/294/241 203/293/240 201/295/242
f 181/294/241 201/295/242 180/296/243
f 180/296/243 201/295/242 199/297/244
f 180/296/243 199/297/244 179/298/245
f 179/298/245 199/297/244 197/299/246
f 179/298/245 197/299/246 178/300/247
f 178/300/247 197/299/246 195/301/248
f 178/300/247 195/301/248 177/234/201
f 177/234/201 195/301/248 193/235/202
f 115/238/167 24/302/28 26/236/29
f 196/240/204 194/237/203 193/235/202
f 196/240/204 193/235/202 195/301/248
f 198/242/205 196/240/204 195/301/248
f 198/242/205 195/301/248 197/299/246
f 200/244/206 198/242/205 197/299/246
f 200/244/206 197/299/246 199/297/244
f 202/246/207 200/244/206 199/297/244
f 202/246/207 199/297/244 201/295/242
f 204/248/208 202/246/207 201/295/242
f 204/248/208 201/295/242 203/293/240
f 206/250/209 204/248/208 203/293/240
f 206/250/209 203/293/240 205/291/238
f 208/252/210 206/250/209 205/291/238
f 208/252/210 205/291/238 207/289/236
f 210/254/211 208/252/210 207/289/236
f 210/254/211 207/289/236 209/287/234
f 212/256/212 210/254/211 209/287/234
f 212/256/212 209/287/234 211/285/232
f 214/258/213 212/256/212 211/285/232
f 214/258/213 211/285/232 213/283/230
f 216/260/214 214/258/213 213/283/230
f 216/260/214 213/283/230 215/281/228
f 218/262/215 216/260/214 215/281/228
f 218/262/215 215/281/228 217/279/226
f 220/264/216 218/262/215 217/279/226
f 220/264/216 217/279/226 219/277/224
f 222/266/217 220/264/216 219/277/224
f 222/266/217 219/277/224 221/275/222
f 224/268/218 222/266/217 221/275/222
f 224/268/218 221/275/222 223/271/219
f 192/303/249 177/304/250 22/305/251
f 22/305/251 177/304/250 26/306/252
f 22/305/251 26/306/252 25/307/253
f 177/304/250 192/303/249 178/308/254
f 178/308/254 192/303/249 191/309/255
f 178/308/254 191/309/255 179/310/256
f 179/310/256 191/309/255 190/311/257
f 179/310/256 190/311/257 180/312/258
f 180/312/258 190/311/257 189/313/259
f 180/312/258 189/313/259 181/314/260
f 181/314/260 189/313/259 188/315/261
f 181/314/260 188/315/261 182/316/262
f 182/316/262 188/315/261 187/317/263
f 182/316/262 187/317/263 183/318/264
f 183/318/264 187/317/263 186/319/265
f 183/318/264 186/319/265 184/320/266
f 184/320/266 186/319/265 185/321/267
f 25/307/253 23/322/268 22/305/251
g superStructure

v -40000.000000 -5000.000000 22500.000000
v -40000.000000 -5000.000000 10500.000000
v -20000.000000 -5000.000000 10500.000000
v -20000.000000 -5000.000000 22500.000000
v -40000.000000 5000.000000 10500.000000
v -20000.000000 5000.000000 10500.000000
v -20000.000000 5000.000000 22500.000000
v -40000.000000 5000.000000 22500.000000
vt -600.000000 -1000.000002 0.000000
vt 600.000000 -1000.000002 0.000000
vt -600.000000 1000.000002 0.000000
vt 600.000000 1000.000002 0.000000
vt 2000.000004 500.000000 0.000000
vt -0.000000 500.000000 0.000000
vt 2000.000004 -500.000000 0.000000
vt 0.000000 -500.000000 0.000000
vt 1200.000000 500.000000 0.000000
vt 0.000000 500.000000 0.000000
vt 1200.000000 -500.000000 0.000000
vt 0.000000 -500.000000 0.000000
vt 2000.000004 500.000000 0.000000
vt 0.000000 500.000000 0.000000
vt 2000.000004 -500.000000 0.000000
vt 0.000000 -500.000000 0.000000
vt 1200.000000 500.000000 0.000000
vt 0.000000 500.000000 0.000000
vt 1200.000000 -500.000000 0.000000
vt 0.000000 -500.000000 0.000000
vt -600.000000 -1000.000002 0.000000
vt 600.000000 -1000.000002 0.000000
vt -600.000000 1000.000002 0.000000
vt 600.000000 1000.000002 0.000000
vn 0.000000 -0.100000 0.000000
vn 0.000000 -0.100000 0.000000
vn 0.000000 -0.100000 0.000000
vn 0.000000 -0.100000 0.000000
vn 0.000000 0.000000 -0.100000
vn 0.000000 0.000000 -0.100000
vn 0.000000 0.000000 -0.100000
vn 0.000000 0.000000 -0.100000
vn 0.100000 -0.000000 0.000000
vn 0.100000 -0.000000 0.000000
vn 0.100000 -0.000000 0.000000
vn 0.100000 -0.000000 0.000000
vn 0.000000 0.000000 0.100000
vn 0.000000 0.000000 0.100000
vn 0.000000 0.000000 0.100000
vn 0.000000 0.000000 0.100000
vn -0.100000 0.000000 0.000000
vn -0.100000 0.000000 0.000000
vn -0.100000 0.000000 0.000000
vn -0.100000 0.000000 0.000000
vn 0.000000 0.100000 0.000000
vn 0.000000 0.100000 0.000000
vn 0.000000 0.100000 0.000000
vn 0.000000 0.100000 0.000000
usemtl Paint_-_Enamel_Glossy_(Grey)
f 225/323/269 226/324/270 228/325/271
f 228/325/271 226/324/270 227/326/272
f 229/327/273 230/328/274 226/329/275
f 226/329/275 230/328/274 227/330/276
f 230/331/277 231/332/278 227/333/279
f 227/333/279 231/332/278 228/334/280
f 231/335/281 232/336/282 228/337/283
f 228/337/283 232/336/282 225/338/284
f 232/339/285 229/340/286 225/341/287
f 225/341/287 229/340/286 226/342/288
f 229/343/289 232/344/290 230/345/291
f 230/345/291 232/344/290 231/346/292
g chimney1

v -36974.288834 -4000.000000 25000.000000
v -36974.288834 -4000.000000 22500.000000
v -24964.186642 -4000.000000 22500.000000
v -25000.000000 -4000.000000 25000.000000
v -36974.288834 4000.000000 22500.000000
v -24964.186642 4000.000000 22500.000000
v -25000.000000 4000.000000 25000.000000
v -36974.288834 4000.000000 25000.000000
vt -125.000000 -600.505111 0.000000
vt 125.000000 -600.505111 0.000000
vt -125.000000 596.923775 0.000000
vt 125.000000 600.505111 0.000000
vt 1201.010222 400.000000 0.000000
vt -0.000000 400.000000 0.000000
vt 1201.010222 -400.000000 0.000000
vt 0.000000 -400.000000 0.000000
vt 250.025650 400.000000 0.000000
vt 0.000000 400.000000 0.000000
vt 250.025650 -400.000000 0.000000
vt 0.000000 -400.000000 0.000000
vt 1197.428880 400.000000 0.000000
vt 0.000000 400.000000 0.000000
vt 1197.428880 -400.000000 0.000000
vt 0.000000 -400.000000 0.000000
vt 250.000001 400.000000 0.000000
vt 0.000000 400.000000 0.000000
vt 250.000001 -400.000000 0.000000
vt 0.000000 -400.000000 0.000000
vt 125.000000 -600.505111 0.000000
vt 125.000000 596.923775 0.000000
vt -125.000000 -600.505111 0.000000
vt -125.000000 600.505111 0.000000
vn 0.000000 -0.100000 0.000000
vn 0.000000 -0.100000 0.000000
vn 0.000000 -0.100000 0.000000
vn 0.000000 -0.100000 0.000000
vn 0.000000 0.000000 -0.100000
vn 0.000000 0.000000 -0.100000
vn 0.000000 0.000000 -0.100000
vn 0.000000 0.000000 -0.100000
vn 0.099990 -0.000000 0.001432
vn 0.099990 -0.000000 0.001432
vn 0.099990 -0.000000 0.001432
vn 0.099990 -0.000000 0.001432
vn 0.000000 0.000000 0.100000
vn 0.000000 0.000000 0.100000
vn 0.000000 0.000000 0.100000
vn 0.000000 0.000000 0.100000
vn -0.100000 0.000000 0.000000
vn -0.100000 0.000000 0.000000
vn -0.100000 0.000000 0.000000
vn -0.100000 0.000000 0.000000
vn 0.000000 0.100000 0.000000
vn 0.000000 0.100000 0.000000
vn 0.000000 0.100000 0.000000
vn 0.000000 0.100000 0.000000
usemtl Paint_-_Enamel_Glossy_(Yellow)
f 233/347/293 234/348/294 236/349/295
f 236/349/295 234/348/294 235/350/296
f 237/351/297 238/352/298 234/353/299
f 234/353/299 238/352/298 235/354/300
f 238/355/301 239/356/302 235/357/303
f 235/357/303 239/356/302 236/358/304
f 239/359/305 240/360/306 236/361/307
f 236/361/307 240/360/306 233/362/308
f 240/363/309 237/364/310 233/365/311
f 233/365/311 237/364/310 234/366/312
f 240/367/313 239/368/314 237/369/315
f 237/369/315 239/368/314 238/370/316
g chimney2

v -30000.000000 3000.000000 28000.000000
v -30000.000000 3000.000000 25000.000000
v -32000.000000 3000.000000 25000.000000
v -32000.000000 3000.000000 28000.000000
v -29223.542865 2897.777479 25000.000000
v -28500.000000 2598.076211 25000.000000
v -27878.679656 2121.320344 25000.000000
v -27401.923789 1500.000000 25000.000000
v -27102.222521 776.457135 25000.000000
v -27000.000000 0.000000 25000.000000
v -27102.222521 -776.457135 25000.000000
v -27401.923789 -1500.000000 25000.000000
v -27878.679656 -2121.320344 25000.000000
v -28500.000000 -2598.076211 25000.000000
v -29223.542865 -2897.777479 25000.000000
v -30000.000000 -3000.000000 25000.000000
v -32000.000000 -3000.000000 25000.000000
v -32776.457135 -2897.777479 25000.000000
v -33500.000000 -2598.076211 25000.000000
v -34121.320344 -2121.320344 25000.000000
v -34598.076211 -1500.000000 25000.000000
v -34897.777479 -776.457135 25000.000000
v -35000.000000 0.000000 25000.000000
v -34897.777479 776.457135 25000.000000
v -34598.076211 1500.000000 25000.000000
v -34121.320344 2121.320344 25000.000000
v -33500.000000 2598.076211 25000.000000
v -32776.457135 2897.777479 25000.000000
v -30000.000000 -3000.000000 28000.000000
v -29223.542865 -2897.777479 28000.000000
v -28500.000000 -2598.076211 28000.000000
v -27878.679656 -2121.320344 28000.000000
v -27401.923789 -1500.000000 28000.000000
v -27102.222521 -776.457135 28000.000000
v -27000.000000 0.000000 28000.000000
v -27102.222521 776.457135 28000.000000
v -27401.923789 1500.000000 28000.000000
v -27878.679656 2121.320344 28000.000000
v -28500.000000 2598.076211 28000.000000
v -29223.542865 2897.777479 28000.000000
v -32776.457135 2897.777479 28000.000000
v -33500.000000 2598.076211 28000.000000
v -34121.320344 2121.320344 28000.000000
v -34598.076211 1500.000000 28000.000000
v -34897.777479 776.457135 28000.000000
v -35000.000000 0.000000 28000.000000
v -34897.777479 -776.457135 28000.000000
v -34598.076211 -1500.000000 28000.000000
v -34121.320344 -2121.320344 28000.000000
v -33500.000000 -2598.076211 28000.000000
v -32776.457135 -2897.777479 28000.000000
v -32000.000000 -3000.000000 28000.000000
vt 150.000000 100.000000 0.000000
vt -150.000000 100.000000 0.000000
vt 150.000000 -100.000000 0.000000
vt -150.000000 -100.000000 0.000000
vt 222.354287 289.777748 0.000000
vt 150.000000 259.807621 0.000000
vt 300.000001 300.000000 0.000000
vt 87.867966 212.132034 0.000000
vt 40.192379 150.000000 0.000000
vt 10.222252 77.645714 0.000000
vt 789.777749 77.645714 0.000000
vt 500.000001 300.000000 0.000000
vt 759.807623 150.000000 0.000000
vt 712.132036 212.132034 0.000000
vt 800.000002 0.000000 0.000000
vt -0.000000 0.000000 0.000000
vt 789.777749 -77.645714 0.000000
vt 10.222252 -77.645714 0.000000
vt 500.000001 -300.000000 0.000000
vt 300.000001 -300.000000 0.000000
vt 40.192379 -150.000000 0.000000
vt 87.867966 -212.132034 0.000000
vt 150.000000 -259.807621 0.000000
vt 222.354287 -289.777748 0.000000
vt 577.645715 -289.777748 0.000000
vt 650.000001 -259.807621 0.000000
vt 712.132036 -212.132034 0.000000
vt 759.807623 -150.000000 0.000000
vt 650.000001 259.807621 0.000000
vt 577.645715 289.777748 0.000000
vt 577.645715 -289.777748 0.000000
vt 650.000001 -259.807621 0.000000
vt 500.000001 -300.000000 0.000000
vt 712.132036 -212.132034 0.000000
vt 759.807623 -150.000000 0.000000
vt 789.777749 -77.645714 0.000000
vt 10.222252 -77.645714 0.000000
vt 300.000001 -300.000000 0.000000
vt 40.192379 -150.000000 0.000000
vt 87.867966 -212.132034 0.000000
vt 0.000000 0.000000 0.000000
vt 800.000002 0.000000 0.000000
vt 10.222252 77.645714 0.000000
vt 789.777749 77.645714 0.000000
vt 300.000001 300.000000 0.000000
vt 500.000001 300.000000 0.000000
vt 759.807623 150.000000 0.000000
vt 712.132036 212.132034 0.000000
vt 650.000001 259.807621 0.000000
vt 577.645715 289.777748 0.000000
vt 222.354287 289.777748 0.000000
vt 150.000000 259.807621 0.000000
vt 87.867966 212.132034 0.000000
vt 40.192379 150.000000 0.000000
vt 150.000000 -259.807621 0.000000
vt 222.354287 -289.777748 0.000000
vt 225.000000 706.858347 0.000000
vt -75.000000 706.858347 0.000000
vt 225.000000 628.318530 0.000000
vt -75.000000 628.318530 0.000000
vt -75.000000 549.778714 0.000000
vt 225.000000 549.778714 0.000000
vt -75.000000 471.238898 0.000000
vt 225.000000 471.238898 0.000000
vt -75.000000 392.699082 0.000000
vt 225.000000 392.699082 0.000000
vt -75.000000 314.159265 0.000000
vt 225.000000 314.159265 0.000000
vt -75.000000 235.619449 0.000000
vt 225.000000 235.619449 0.000000
vt -75.000000 157.079633 0.000000
vt 225.000000 157.079633 0.000000
vt -75.000000 78.539816 0.000000
vt 225.000000 78.539816 0.000000
vt -75.000000 -0.000000 0.000000
vt 225.000000 -0.000000 0.000000
vt -75.000000 -78.539816 0.000000
vt 225.000000 -78.539816 0.000000
vt -75.000000 -157.079633 0.000000
vt 225.000000 -157.079633 0.000000
vt 225.000000 -235.619449 0.000000
vt -75.000000 -235.619449 0.000000
vt -150.000000 -100.000000 0.000000
vt 150.000000 -100.000000 0.000000
vt -150.000000 100.000000 0.000000
vt 150.000000 100.000000 0.000000
vt 225.000000 706.858347 0.000000
vt -75.000000 706.858347 0.000000
vt 225.000000 628.318530 0.000000
vt -75.000000 628.318530 0.000000
vt -75.000000 549.778714 0.000000
vt 225.000000 549.778714 0.000000
vt -75.000000 471.238898 0.000000
vt 225.000000 471.238898 0.000000
vt -75.000000 392.699082 0.000000
vt 225.000000 392.699082 0.000000
vt -75.000000 314.159265 0.000000
vt 225.000000 314.159265 0.000000
vt -75.000000 235.619449 0.000000
vt 225.000000 235.619449 0.000000
vt -75.000000 157.079633 0.000000
vt 225.000000 157.079633 0.000000
vt -75.000000 78.539816 0.000000
vt 225.000000 78.539816 0.000000
vt -75.000000 -0.000000 0.000000
vt 225.000000 -0.000000 0.000000
vt -75.000000 -78.539816 0.000000
vt 225.000000 -78.539816 0.000000
vt -75.000000 -157.079633 0.000000
vt 225.000000 -157.079633 0.000000
vt 225.000000 -235.619449 0.000000
vt -75.000000 -235.619449 0.000000
vn 0.000000 0.100000 0.000000
vn 0.000000 0.100000 0.000000
vn 0.000000 0.100000 0.000000
vn 0.000000 0.100000 0.000000
vn 0.000000 0.000000 -0.100000
vn 0.000000 0.000000 -0.100000
vn 0.000000 0.000000 -0.100000
vn 0.000000 0.000000 -0.100000
vn 0.000000 0.000000 -0.100000
vn 0.000000 0.000000 -0.100000
vn 0.000000 0.000000 -0.100000
vn 0.000000 0.000000 -0.100000
vn 0.000000 0.000000 -0.100000
vn 0.000000 0.000000 -0.100000
vn 0.000000 0.000000 -0.100000
vn 0.000000 0.000000 -0.100000
vn 0.000000 0.000000 -0.100000
vn 0.000000 0.000000 -0.100000
vn 0.000000 0.000000 -0.100000
vn 0.000000 0.000000 -0.100000
vn 0.000000 0.000000 -0.100000
vn 0.000000 0.000000 -0.100000
vn 0.000000 0.000000 -0.100000
vn 0.000000 0.000000 -0.100000
vn 0.000000 0.000000 -0.100000
vn 0.000000 0.000000 -0.100000
vn 0.000000 0.000000 -0.100000
vn 0.000000 0.000000 -0.100000
vn 0.000000 0.000000 -0.100000
vn 0.000000 0.000000 -0.100000
vn 0.000000 0.000000 0.100000
vn 0.000000 0.000000 0.100000
vn 0.000000 0.000000 0.100000
vn 0.000000 0.000000 0.100000
vn 0.000000 0.000000 0.100000
vn 0.000000 0.000000 0.100000
vn 0.000000 0.000000 0.100000
vn 0.000000 0.000000 0.100000
vn 0.000000 0.000000 0.100000
vn 0.000000 0.000000 0.100000
vn 0.000000 0.000000 0.100000
vn 0.000000 0.000000 0.100000
vn 0.000000 0.000000 0.100000
vn 0.000000 0.000000 0.100000
vn 0.000000 0.000000 0.100000
vn 0.000000 0.000000 0.100000
vn 0.000000 0.000000 0.100000
vn 0.000000 0.000000 0.100000
vn 0.000000 0.000000 0.100000
vn 0.000000 0.000000 0.100000
vn 0.000000 0.000000 0.100000
vn 0.000000 0.000000 0.100000
vn 0.000000 0.000000 0.100000
vn 0.000000 0.000000 0.100000
vn 0.000000 0.000000 0.100000
vn 0.000000 0.000000 0.100000
vn -0.025882 0.096593 0.000000
vn -0.025882 0.096593 0.000000
vn -0.050000 0.086603 0.000000
vn -0.050000 0.086603 0.000000
vn -0.070711 0.070711 0.000000
vn -0.070711 0.070711 0.000000
vn -0.086603 0.050000 0.000000
vn -0.086603 0.050000 0.000000
vn -0.096593 0.025882 0.000000
vn -0.096593 0.025882 0.000000
vn -0.100000 0.000000 0.000000
vn -0.100000 0.000000 0.000000
vn -0.096593 -0.025882 0.000000
vn -0.096593 -0.025882 0.000000
vn -0.086603 -0.050000 0.000000
vn -0.086603 -0.050000 0.000000
vn -0.070711 -0.070711 0.000000
vn -0.070711 -0.070711 0.000000
vn -0.050000 -0.086603 0.000000
vn -0.050000 -0.086603 0.000000
vn -0.025882 -0.096593 0.000000
vn -0.025882 -0.096593 0.000000
vn 0.000000 -0.100000 0.000000
vn 0.000000 -0.100000 0.000000
vn 0.000000 -0.100000 0.000000
vn 0.000000 -0.100000 0.000000
vn 0.025882 0.096593 0.000000
vn 0.025882 0.096593 0.000000
vn 0.050000 0.086603 0.000000
vn 0.050000 0.086603 0.000000
vn 0.070711 0.070711 0.000000
vn 0.070711 0.070711 0.000000
vn 0.086603 0.050000 0.000000
vn 0.086603 0.050000 0.000000
vn 0.096593 0.025882 0.000000
vn 0.096593 0.025882 0.000000
vn 0.100000 0.000000 0.000000
vn 0.100000 0.000000 0.000000
vn 0.096593 -0.025882 0.000000
vn 0.096593 -0.025882 0.000000
vn 0.086603 -0.050000 0.000000
vn 0.086603 -0.050000 0.000000
vn 0.070711 -0.070711 0.000000
vn 0.070711 -0.070711 0.000000
vn 0.050000 -0.086603 0.000000
vn 0.050000 -0.086603 0.000000
vn 0.025882 -0.096593 0.000000
vn 0.025882 -0.096593 0.000000
usemtl Paint_-_Enamel_Glossy_(Black)
f 241/371/317 242/372/318 244/373/319
f 244/373/319 242/372/318 243/374/320
f 245/375/321 246/376/322 242/377/323
f 242/377/323 246/376/322 247/378/324
f 242/377/323 247/378/324 248/379/325
f 248/379/325 249/380/326 242/377/323
f 242/377/323 249/380/326 264/381/327
f 242/377/323 264/381/327 243/382/328
f 243/382/328 264/381/327 265/383/329
f 243/382/328 265/383/329 266/384/330
f 264/381/327 249/380/326 263/385/331
f 263/385/331 249/380/326 250/386/332
f 263/385/331 250/386/332 262/387/333
f 262/387/333 250/386/332 251/388/334
f 262/387/333 251/388/334 257/389/335
f 257/389/335 251/388/334 256/390/336
f 256/390/336 251/388/334 252/391/337
f 256/390/336 252/391/337 253/392/338
f 253/392/338 254/393/339 256/390/336
f 256/390/336 254/393/339 255/394/340
f 258/395/341 259/396/342 257/389/335
f 257/389/335 259/396/342 260/397/343
f 257/389/335 260/397/343 261/398/344
f 261/398/344 262/387/333 257/389/335
f 266/384/330 267/399/345 243/382/328
f 243/382/328 267/399/345 268/400/346
f 270/401/347 271/402/348 269/403/349
f 269/403/349 271/402/348 272/404/350
f 269/403/349 272/404/350 273/405/351
f 273/405/351 274/406/352 269/403/349
f 269/403/349 274/406/352 287/407/353
f 269/403/349 287/407/353 292/408/354
f 292/408/354 287/407/353 288/409/355
f 292/408/354 288/409/355 289/410/356
f 287/407/353 274/406/352 286/411/357
f 286/411/357 274/406/352 275/412/358
f 286/411/357 275/412/358 285/413/359
f 285/413/359 275/412/358 276/414/360
f 285/413/359 276/414/360 244/415/361
f 244/415/361 276/414/360 241/416/362
f 241/416/362 276/414/360 277/417/363
f 241/416/362 277/417/363 278/418/364
f 278/418/364 279/419/365 241/416/362
f 241/416/362 279/419/365 280/420/366
f 281/421/367 282/422/368 244/415/361
f 244/415/361 282/422/368 283/423/369
f 244/415/361 283/423/369 284/424/370
f 284/424/370 285/413/359 244/415/361
f 289/410/356 290/425/371 292/408/354
f 292/408/354 290/425/371 291/426/372
f 244/427/319 243/428/320 281/429/373
f 281/429/373 243/428/320 268/430/374
f 281/429/373 268/430/374 267/431/375
f 281/429/373 267/431/375 282/432/376
f 282/432/376 267/431/375 266/433/377
f 282/432/376 266/433/377 283/434/378
f 283/434/378 266/433/377 265/435/379
f 283/434/378 265/435/379 284/436/380
f 284/436/380 265/435/379 264/437/381
f 284/436/380 264/437/381 285/438/382
f 285/438/382 264/437/381 263/439/383
f 285/438/382 263/439/383 286/440/384
f 286/440/384 263/439/383 262/441/385
f 286/440/384 262/441/385 287/442/386
f 287/442/386 262/441/385 261/443/387
f 287/442/386 261/443/387 288/444/388
f 288/444/388 261/443/387 260/445/389
f 288/444/388 260/445/389 289/446/390
f 289/446/390 260/445/389 259/447/391
f 289/446/390 259/447/391 290/448/392
f 290/448/392 259/447/391 258/449/393
f 290/448/392 258/449/393 291/450/394
f 291/450/394 258/449/393 292/451/395
f 292/451/395 258/449/393 257/452/396
f 292/453/395 257/454/396 269/455/397
f 269/455/397 257/454/396 256/456/398
f 242/457/318 241/458/317 245/459/399
f 245/459/399 241/458/317 280/460/400
f 245/459/399 280/460/400 279/461/401
f 245/459/399 279/461/401 246/462/402
f 246/462/402 279/461/401 278/463/403
f 246/462/402 278/463/403 247/464/404
f 247/464/404 278/463/403 277/465/405
f 247/464/404 277/465/405 248/466/406
f 248/466/406 277/465/405 276/467/407
f 248/466/406 276/467/407 249/468/408
f 249/468/408 276/467/407 275/469/409
f 249/468/408 275/469/409 250/470/410
f 250/470/410 275/469/409 274/471/411
f 250/470/410 274/471/411 251/472/412
f 251/472/412 274/471/411 273/473/413
f 251/472/412 273/473/413 252/474/414
f 252/474/414 273/473/413 272/475/415
f 252/474/414 272/475/415 253/476/416
f 253/476/416 272/475/415 271/477/417
f 253/476/416 271/477/417 254/478/418
f 254/478/418 271/477/417 270/479/419
f 254/478/418 270/479/419 255/480/420
f 255/480/420 270/479/419 256/481/398
f 256/481/398 270/479/419 269/482/397
# 292 vertices
# 482 texture params
# 420 normals
# 568 facets

# 4 groups
